<svg width="1609" height="1229" viewBox="0 0 1609 1229" fill="none" xmlns="http://www.w3.org/2000/svg">
<rect width="1609" height="1229" fill="white"/>
<path d="M498.151 433.916H509.563L520.798 463.399L532.151 433.916H543.444V476H536.311V441.049H536.192L523.413 476H518.182L505.403 441.049H505.284V476H498.151V433.916ZM552.466 447.469H559.599V476H552.466V447.469ZM551.456 437.78C551.456 436.631 551.872 435.64 552.704 434.808C553.576 433.936 554.665 433.5 555.973 433.5C557.281 433.5 558.37 433.916 559.242 434.749C560.154 435.541 560.609 436.552 560.609 437.78C560.609 439.009 560.154 440.039 559.242 440.871C558.37 441.663 557.281 442.06 555.973 442.06C554.665 442.06 553.576 441.644 552.704 440.812C551.872 439.94 551.456 438.929 551.456 437.78ZM590.375 471.72H590.256C589.226 473.464 587.839 474.732 586.095 475.524C584.352 476.317 582.469 476.713 580.448 476.713C578.229 476.713 576.248 476.337 574.504 475.584C572.8 474.791 571.334 473.721 570.106 472.374C568.877 471.027 567.946 469.442 567.312 467.619C566.678 465.796 566.361 463.835 566.361 461.734C566.361 459.634 566.698 457.673 567.372 455.85C568.045 454.027 568.976 452.442 570.165 451.095C571.394 449.747 572.86 448.697 574.564 447.944C576.268 447.152 578.13 446.756 580.151 446.756C581.498 446.756 582.687 446.894 583.718 447.172C584.748 447.449 585.659 447.806 586.452 448.242C587.244 448.677 587.918 449.153 588.473 449.668C589.027 450.144 589.483 450.619 589.84 451.095H590.018V431.063H597.151V476H590.375V471.72ZM573.494 461.734C573.494 462.844 573.672 463.914 574.029 464.944C574.425 465.974 574.98 466.886 575.693 467.678C576.446 468.471 577.338 469.105 578.368 469.58C579.398 470.056 580.567 470.294 581.875 470.294C583.183 470.294 584.352 470.056 585.382 469.58C586.412 469.105 587.284 468.471 587.997 467.678C588.75 466.886 589.305 465.974 589.662 464.944C590.058 463.914 590.256 462.844 590.256 461.734C590.256 460.625 590.058 459.555 589.662 458.525C589.305 457.494 588.75 456.583 587.997 455.79C587.284 454.998 586.412 454.364 585.382 453.888C584.352 453.413 583.183 453.175 581.875 453.175C580.567 453.175 579.398 453.413 578.368 453.888C577.338 454.364 576.446 454.998 575.693 455.79C574.98 456.583 574.425 457.494 574.029 458.525C573.672 459.555 573.494 460.625 573.494 461.734ZM617.889 464.409H603.207V458.346H617.889V464.409ZM624.809 433.916H636.222L647.456 463.399L658.809 433.916H670.102V476H662.97V441.049H662.851L650.071 476H644.84L632.061 441.049H631.942V476H624.809V433.916ZM696.837 472.077H696.659C695.629 473.702 694.321 474.89 692.736 475.643C691.151 476.357 689.407 476.713 687.505 476.713C686.198 476.713 684.91 476.535 683.642 476.178C682.413 475.822 681.304 475.287 680.313 474.573C679.362 473.86 678.589 472.969 677.995 471.899C677.401 470.829 677.103 469.58 677.103 468.154C677.103 466.608 677.381 465.301 677.935 464.231C678.49 463.121 679.223 462.21 680.135 461.497C681.086 460.744 682.176 460.149 683.404 459.713C684.632 459.278 685.9 458.961 687.208 458.762C688.555 458.525 689.903 458.386 691.25 458.346C692.597 458.267 693.865 458.227 695.054 458.227H696.837V457.455C696.837 455.672 696.223 454.344 694.995 453.472C693.766 452.561 692.201 452.105 690.299 452.105C688.793 452.105 687.386 452.383 686.079 452.937C684.771 453.452 683.642 454.166 682.691 455.077L678.946 451.332C680.531 449.708 682.374 448.539 684.474 447.825C686.614 447.112 688.813 446.756 691.072 446.756C693.093 446.756 694.797 446.993 696.184 447.469C697.57 447.905 698.72 448.479 699.631 449.193C700.542 449.906 701.236 450.738 701.711 451.689C702.227 452.6 702.583 453.532 702.781 454.483C703.019 455.434 703.158 456.365 703.197 457.276C703.237 458.148 703.257 458.921 703.257 459.595V476H696.837V472.077ZM696.421 463.22H694.935C693.945 463.22 692.835 463.26 691.607 463.339C690.378 463.419 689.209 463.617 688.1 463.934C687.03 464.211 686.118 464.647 685.365 465.241C684.613 465.796 684.236 466.589 684.236 467.619C684.236 468.293 684.375 468.867 684.652 469.343C684.969 469.779 685.365 470.155 685.841 470.472C686.317 470.789 686.851 471.027 687.446 471.185C688.04 471.304 688.635 471.364 689.229 471.364C691.686 471.364 693.489 470.789 694.638 469.64C695.827 468.451 696.421 466.846 696.421 464.825V463.22ZM710.931 447.469H718.064V451.986H718.183C718.975 450.322 720.105 449.034 721.571 448.123C723.037 447.211 724.721 446.756 726.623 446.756C727.059 446.756 727.475 446.795 727.872 446.874C728.307 446.954 728.743 447.053 729.179 447.172V454.067C728.585 453.908 727.99 453.789 727.396 453.71C726.841 453.591 726.287 453.532 725.732 453.532C724.067 453.532 722.72 453.849 721.69 454.483C720.699 455.077 719.926 455.771 719.372 456.563C718.857 457.356 718.5 458.148 718.302 458.941C718.143 459.733 718.064 460.328 718.064 460.724V476H710.931V447.469ZM734.034 431.063H741.167V459.297L752.163 447.469H761.317L749.072 460.427L762.09 476H752.639L741.286 461.437H741.167V476H734.034V431.063ZM771.666 464.231C771.904 466.371 772.736 468.035 774.162 469.224C775.589 470.413 777.313 471.007 779.334 471.007C781.117 471.007 782.603 470.65 783.792 469.937C785.02 469.184 786.09 468.253 787.001 467.143L792.113 471.007C790.449 473.068 788.586 474.534 786.526 475.406C784.465 476.277 782.306 476.713 780.047 476.713C777.907 476.713 775.886 476.357 773.984 475.643C772.082 474.93 770.437 473.92 769.051 472.612C767.664 471.304 766.554 469.739 765.722 467.916C764.929 466.054 764.533 463.993 764.533 461.734C764.533 459.476 764.929 457.435 765.722 455.612C766.554 453.75 767.664 452.165 769.051 450.857C770.437 449.549 772.082 448.539 773.984 447.825C775.886 447.112 777.907 446.756 780.047 446.756C782.028 446.756 783.831 447.112 785.456 447.825C787.12 448.499 788.527 449.49 789.676 450.797C790.865 452.105 791.776 453.73 792.41 455.672C793.084 457.574 793.421 459.773 793.421 462.269V464.231H771.666ZM786.288 458.881C786.248 456.781 785.595 455.137 784.327 453.948C783.059 452.719 781.295 452.105 779.036 452.105C776.897 452.105 775.193 452.719 773.925 453.948C772.696 455.176 771.943 456.821 771.666 458.881H786.288ZM796.763 453.532V447.469H802.647V439.207H809.78V447.469H817.626V453.532H809.78V466.014C809.78 467.441 810.037 468.57 810.553 469.402C811.107 470.234 812.177 470.65 813.762 470.65C814.396 470.65 815.09 470.591 815.843 470.472C816.596 470.314 817.19 470.076 817.626 469.759V475.762C816.873 476.119 815.942 476.357 814.832 476.476C813.762 476.634 812.811 476.713 811.979 476.713C810.077 476.713 808.512 476.495 807.283 476.059C806.095 475.663 805.144 475.049 804.43 474.217C803.757 473.345 803.281 472.275 803.004 471.007C802.766 469.739 802.647 468.273 802.647 466.608V453.532H796.763ZM841.436 433.916H855.583C857.604 433.916 859.545 434.115 861.408 434.511C863.31 434.907 864.974 435.581 866.401 436.532C867.827 437.443 868.957 438.691 869.789 440.277C870.661 441.822 871.096 443.764 871.096 446.102C871.096 448.757 870.641 450.897 869.729 452.521C868.818 454.146 867.589 455.414 866.044 456.325C864.499 457.197 862.696 457.792 860.635 458.109C858.614 458.426 856.494 458.584 854.275 458.584H848.925V476H841.436V433.916ZM853.443 452.165C854.513 452.165 855.622 452.125 856.771 452.046C857.921 451.966 858.971 451.729 859.922 451.332C860.912 450.936 861.705 450.342 862.299 449.549C862.933 448.757 863.25 447.647 863.25 446.221C863.25 444.913 862.973 443.883 862.418 443.13C861.863 442.337 861.15 441.743 860.278 441.346C859.407 440.911 858.436 440.633 857.366 440.514C856.296 440.395 855.266 440.336 854.275 440.336H848.925V452.165H853.443ZM877.119 447.469H884.252V451.986H884.371C885.164 450.322 886.293 449.034 887.759 448.123C889.225 447.211 890.909 446.756 892.812 446.756C893.247 446.756 893.664 446.795 894.06 446.874C894.496 446.954 894.932 447.053 895.367 447.172V454.067C894.773 453.908 894.179 453.789 893.584 453.71C893.029 453.591 892.475 453.532 891.92 453.532C890.256 453.532 888.908 453.849 887.878 454.483C886.887 455.077 886.115 455.771 885.56 456.563C885.045 457.356 884.688 458.148 884.49 458.941C884.331 459.733 884.252 460.328 884.252 460.724V476H877.119V447.469ZM900.341 447.469H907.474V476H900.341V447.469ZM899.33 437.78C899.33 436.631 899.747 435.64 900.579 434.808C901.45 433.936 902.54 433.5 903.848 433.5C905.156 433.5 906.245 433.916 907.117 434.749C908.028 435.541 908.484 436.552 908.484 437.78C908.484 439.009 908.028 440.039 907.117 440.871C906.245 441.663 905.156 442.06 903.848 442.06C902.54 442.06 901.45 441.644 900.579 440.812C899.747 439.94 899.33 438.929 899.33 437.78ZM935.159 456.028C934.327 455.156 933.455 454.463 932.543 453.948C931.632 453.433 930.701 453.175 929.75 453.175C928.442 453.175 927.273 453.413 926.243 453.888C925.213 454.364 924.321 454.998 923.568 455.79C922.855 456.583 922.3 457.494 921.904 458.525C921.547 459.555 921.369 460.625 921.369 461.734C921.369 462.844 921.547 463.914 921.904 464.944C922.3 465.974 922.855 466.886 923.568 467.678C924.321 468.471 925.213 469.105 926.243 469.58C927.273 470.056 928.442 470.294 929.75 470.294C930.859 470.294 931.89 470.076 932.841 469.64C933.792 469.164 934.604 468.491 935.278 467.619L940.033 472.731C939.32 473.444 938.487 474.058 937.536 474.573C936.625 475.089 935.694 475.505 934.743 475.822C933.792 476.139 932.88 476.357 932.009 476.476C931.137 476.634 930.384 476.713 929.75 476.713C927.61 476.713 925.589 476.357 923.687 475.643C921.785 474.93 920.14 473.92 918.753 472.612C917.366 471.304 916.257 469.739 915.425 467.916C914.632 466.054 914.236 463.993 914.236 461.734C914.236 459.476 914.632 457.435 915.425 455.612C916.257 453.75 917.366 452.165 918.753 450.857C920.14 449.549 921.785 448.539 923.687 447.825C925.589 447.112 927.61 446.756 929.75 446.756C931.573 446.756 933.395 447.112 935.218 447.825C937.081 448.499 938.705 449.589 940.092 451.095L935.159 456.028ZM950.044 464.231C950.282 466.371 951.114 468.035 952.54 469.224C953.967 470.413 955.691 471.007 957.712 471.007C959.495 471.007 960.981 470.65 962.17 469.937C963.398 469.184 964.468 468.253 965.379 467.143L970.491 471.007C968.827 473.068 966.965 474.534 964.904 475.406C962.843 476.277 960.684 476.713 958.425 476.713C956.285 476.713 954.264 476.357 952.362 475.643C950.46 474.93 948.816 473.92 947.429 472.612C946.042 471.304 944.932 469.739 944.1 467.916C943.307 466.054 942.911 463.993 942.911 461.734C942.911 459.476 943.307 457.435 944.1 455.612C944.932 453.75 946.042 452.165 947.429 450.857C948.816 449.549 950.46 448.539 952.362 447.825C954.264 447.112 956.285 446.756 958.425 446.756C960.406 446.756 962.209 447.112 963.834 447.825C965.498 448.499 966.905 449.49 968.054 450.797C969.243 452.105 970.154 453.73 970.788 455.672C971.462 457.574 971.799 459.773 971.799 462.269V464.231H950.044ZM964.666 458.881C964.627 456.781 963.973 455.137 962.705 453.948C961.437 452.719 959.673 452.105 957.414 452.105C955.275 452.105 953.571 452.719 952.303 453.948C951.074 455.176 950.321 456.821 950.044 458.881H964.666Z" fill="#333333"/>
<path d="M602.556 233.404C604.336 233.404 606.182 233.635 608.093 234.097C610.005 234.558 611.686 235.366 613.136 236.519L608.39 242.303C607.599 241.611 606.693 241.117 605.671 240.82C604.649 240.491 603.611 240.293 602.556 240.227V248.088L607.302 249.472C609.478 250.131 611.208 251.219 612.493 252.735C613.812 254.218 614.471 256.113 614.471 258.42C614.471 260.167 614.158 261.7 613.531 263.018C612.905 264.336 612.048 265.457 610.961 266.38C609.873 267.303 608.604 268.028 607.154 268.555C605.704 269.082 604.171 269.428 602.556 269.593V273.054H599.293V269.593C597.118 269.593 594.943 269.297 592.767 268.703C590.625 268.11 588.73 267.072 587.082 265.589L592.322 259.706C593.179 260.76 594.218 261.518 595.437 261.98C596.657 262.408 597.942 262.672 599.293 262.771V254.416L595.684 253.328C593.179 252.537 591.268 251.433 589.949 250.016C588.664 248.566 588.021 246.588 588.021 244.083C588.021 242.534 588.334 241.133 588.961 239.881C589.587 238.628 590.411 237.557 591.433 236.667C592.487 235.778 593.69 235.052 595.042 234.492C596.426 233.932 597.843 233.569 599.293 233.404V229.944H602.556V233.404ZM599.293 240.375C598.37 240.573 597.546 240.919 596.821 241.413C596.096 241.908 595.734 242.682 595.734 243.737C595.734 244.495 595.882 245.088 596.179 245.517C596.475 245.945 596.821 246.291 597.217 246.555C597.612 246.786 598.008 246.951 598.403 247.049C598.799 247.148 599.096 247.231 599.293 247.297V240.375ZM602.556 262.672C603.051 262.573 603.545 262.441 604.039 262.276C604.567 262.079 605.028 261.831 605.424 261.535C605.819 261.238 606.132 260.892 606.363 260.497C606.627 260.068 606.758 259.574 606.758 259.013C606.758 258.486 606.66 258.041 606.462 257.679C606.297 257.316 606.066 257.019 605.77 256.789C605.473 256.525 605.127 256.311 604.731 256.146C604.336 255.948 603.924 255.767 603.496 255.602L602.556 255.256V262.672ZM629.836 242.303L622.816 248.483L618.614 243.638L630.034 233.998H636.955V269H629.836V242.303ZM646.487 251.499C646.487 249.422 646.668 247.313 647.03 245.171C647.426 243.028 648.102 241.084 649.057 239.337C650.046 237.59 651.381 236.173 653.062 235.085C654.743 233.965 656.885 233.404 659.489 233.404C662.093 233.404 664.235 233.965 665.916 235.085C667.597 236.173 668.915 237.59 669.871 239.337C670.86 241.084 671.535 243.028 671.898 245.171C672.293 247.313 672.491 249.422 672.491 251.499C672.491 253.575 672.293 255.685 671.898 257.827C671.535 259.969 670.86 261.914 669.871 263.661C668.915 265.407 667.597 266.841 665.916 267.962C664.235 269.049 662.093 269.593 659.489 269.593C656.885 269.593 654.743 269.049 653.062 267.962C651.381 266.841 650.046 265.407 649.057 263.661C648.102 261.914 647.426 259.969 647.03 257.827C646.668 255.685 646.487 253.575 646.487 251.499ZM653.902 251.499C653.902 252.422 653.935 253.526 654.001 254.811C654.1 256.097 654.331 257.333 654.693 258.519C655.056 259.706 655.6 260.711 656.325 261.535C657.083 262.359 658.138 262.771 659.489 262.771C660.807 262.771 661.845 262.359 662.604 261.535C663.362 260.711 663.922 259.706 664.284 258.519C664.647 257.333 664.861 256.097 664.927 254.811C665.026 253.526 665.075 252.422 665.075 251.499C665.075 250.576 665.026 249.472 664.927 248.187C664.861 246.901 664.647 245.665 664.284 244.479C663.922 243.292 663.362 242.287 662.604 241.463C661.845 240.639 660.807 240.227 659.489 240.227C658.138 240.227 657.083 240.639 656.325 241.463C655.6 242.287 655.056 243.292 654.693 244.479C654.331 245.665 654.1 246.901 654.001 248.187C653.935 249.472 653.902 250.576 653.902 251.499ZM675.744 251.499C675.744 249.422 675.925 247.313 676.288 245.171C676.683 243.028 677.359 241.084 678.315 239.337C679.304 237.59 680.638 236.173 682.319 235.085C684 233.965 686.143 233.404 688.746 233.404C691.35 233.404 693.492 233.965 695.173 235.085C696.854 236.173 698.173 237.59 699.128 239.337C700.117 241.084 700.793 243.028 701.155 245.171C701.551 247.313 701.749 249.422 701.749 251.499C701.749 253.575 701.551 255.685 701.155 257.827C700.793 259.969 700.117 261.914 699.128 263.661C698.173 265.407 696.854 266.841 695.173 267.962C693.492 269.049 691.35 269.593 688.746 269.593C686.143 269.593 684 269.049 682.319 267.962C680.638 266.841 679.304 265.407 678.315 263.661C677.359 261.914 676.683 259.969 676.288 257.827C675.925 255.685 675.744 253.575 675.744 251.499ZM683.16 251.499C683.16 252.422 683.193 253.526 683.259 254.811C683.358 256.097 683.588 257.333 683.951 258.519C684.313 259.706 684.857 260.711 685.582 261.535C686.34 262.359 687.395 262.771 688.746 262.771C690.065 262.771 691.103 262.359 691.861 261.535C692.619 260.711 693.179 259.706 693.542 258.519C693.904 257.333 694.119 256.097 694.185 254.811C694.283 253.526 694.333 252.422 694.333 251.499C694.333 250.576 694.283 249.472 694.185 248.187C694.119 246.901 693.904 245.665 693.542 244.479C693.179 243.292 692.619 242.287 691.861 241.463C691.103 240.639 690.065 240.227 688.746 240.227C687.395 240.227 686.34 240.639 685.582 241.463C684.857 242.287 684.313 243.292 683.951 244.479C683.588 245.665 683.358 246.901 683.259 248.187C683.193 249.472 683.16 250.576 683.16 251.499ZM707.869 260.991H714.988L710.539 274.933H704.21L707.869 260.991ZM743.558 240.524H729.666L729.518 245.912C730.276 245.649 731.314 245.517 732.632 245.517C734.412 245.517 736.044 245.781 737.527 246.308C739.01 246.835 740.279 247.61 741.333 248.631C742.421 249.62 743.262 250.84 743.855 252.29C744.448 253.707 744.745 255.306 744.745 257.085C744.745 259.063 744.399 260.826 743.707 262.375C743.047 263.924 742.125 265.243 740.938 266.33C739.751 267.385 738.334 268.193 736.686 268.753C735.071 269.313 733.308 269.593 731.396 269.593C728.364 269.593 725.826 268.852 723.783 267.369C721.739 265.885 720.339 263.644 719.581 260.645L727.342 258.865C727.54 260.118 728.068 261.139 728.925 261.93C729.781 262.688 730.853 263.067 732.138 263.067C733.72 263.067 734.972 262.573 735.895 261.584C736.851 260.596 737.329 259.343 737.329 257.827C737.329 256.673 737.082 255.734 736.587 255.009C736.126 254.251 735.5 253.658 734.709 253.229C733.951 252.768 733.094 252.455 732.138 252.29C731.182 252.125 730.226 252.043 729.271 252.043C728.051 252.043 726.815 252.158 725.563 252.389C724.343 252.619 723.157 252.933 722.003 253.328L722.399 233.998H743.558V240.524ZM757.935 247.791H760.357C761.049 247.791 761.725 247.742 762.384 247.643C763.043 247.544 763.637 247.363 764.164 247.099C764.724 246.802 765.169 246.407 765.499 245.912C765.828 245.385 765.993 244.709 765.993 243.885C765.993 242.831 765.565 241.957 764.708 241.265C763.884 240.573 762.862 240.227 761.643 240.227C760.489 240.227 759.533 240.54 758.775 241.166C758.017 241.793 757.523 242.567 757.292 243.49L749.135 241.809C749.53 240.293 750.123 239.007 750.914 237.953C751.705 236.865 752.645 235.992 753.732 235.333C754.82 234.673 756.023 234.196 757.341 233.899C758.693 233.569 760.11 233.404 761.593 233.404C763.142 233.404 764.625 233.602 766.043 233.998C767.493 234.36 768.762 234.954 769.849 235.778C770.937 236.569 771.794 237.574 772.42 238.793C773.079 240.013 773.409 241.463 773.409 243.144C773.409 245.088 772.898 246.753 771.876 248.137C770.855 249.521 769.371 250.411 767.427 250.807V250.955C768.481 251.087 769.404 251.4 770.195 251.894C771.019 252.389 771.711 252.999 772.272 253.724C772.832 254.449 773.261 255.273 773.557 256.196C773.854 257.118 774.002 258.091 774.002 259.112C774.002 260.859 773.656 262.392 772.964 263.71C772.305 265.028 771.398 266.133 770.245 267.022C769.124 267.879 767.789 268.522 766.24 268.951C764.724 269.379 763.109 269.593 761.395 269.593C758.264 269.593 755.562 268.868 753.287 267.418C751.046 265.968 749.563 263.677 748.838 260.546L756.649 258.717C756.913 259.969 757.44 260.958 758.231 261.683C759.055 262.408 760.258 262.771 761.84 262.771C763.455 262.771 764.642 262.359 765.4 261.535C766.191 260.678 766.586 259.59 766.586 258.272C766.586 257.283 766.372 256.525 765.944 255.998C765.548 255.437 765.021 255.025 764.362 254.762C763.702 254.498 762.961 254.35 762.137 254.317C761.313 254.251 760.489 254.218 759.665 254.218H757.935V247.791ZM792.976 261.98H777.7V255.751L791.988 233.998H800.095V255.751H804.594V261.98H800.095V269H792.976V261.98ZM792.976 243.688H792.877L785.116 255.751H792.976V243.688ZM808.539 264.748C808.539 264.122 808.655 263.529 808.885 262.969C809.116 262.408 809.429 261.93 809.825 261.535C810.253 261.106 810.748 260.777 811.308 260.546C811.868 260.315 812.461 260.2 813.088 260.2C813.714 260.2 814.307 260.315 814.867 260.546C815.428 260.777 815.906 261.106 816.301 261.535C816.73 261.93 817.059 262.408 817.29 262.969C817.521 263.529 817.636 264.122 817.636 264.748C817.636 265.375 817.521 265.968 817.29 266.528C817.059 267.088 816.73 267.583 816.301 268.011C815.906 268.407 815.428 268.72 814.867 268.951C814.307 269.181 813.714 269.297 813.088 269.297C812.461 269.297 811.868 269.181 811.308 268.951C810.748 268.72 810.253 268.407 809.825 268.011C809.429 267.583 809.116 267.088 808.885 266.528C808.655 265.968 808.539 265.375 808.539 264.748ZM822.822 261.139L836.417 248.928C837.11 248.302 837.802 247.593 838.494 246.802C839.186 246.011 839.532 245.088 839.532 244.034C839.532 242.847 839.104 241.924 838.247 241.265C837.39 240.573 836.384 240.227 835.231 240.227C833.847 240.227 832.759 240.655 831.968 241.512C831.21 242.369 830.781 243.424 830.683 244.676L823.267 244.133C823.366 242.32 823.745 240.754 824.404 239.436C825.063 238.085 825.937 236.964 827.024 236.074C828.112 235.184 829.381 234.525 830.831 234.097C832.314 233.635 833.913 233.404 835.626 233.404C837.208 233.404 838.692 233.635 840.076 234.097C841.46 234.525 842.663 235.184 843.685 236.074C844.707 236.931 845.498 238.019 846.058 239.337C846.651 240.655 846.948 242.188 846.948 243.935C846.948 245.055 846.832 246.077 846.602 247C846.371 247.89 846.041 248.714 845.613 249.472C845.217 250.197 844.74 250.873 844.179 251.499C843.619 252.125 843.009 252.735 842.35 253.328L831.721 262.474H847.244V269H822.822V261.139ZM851.288 251.499C851.288 249.422 851.47 247.313 851.832 245.171C852.228 243.028 852.903 241.084 853.859 239.337C854.848 237.59 856.183 236.173 857.864 235.085C859.545 233.965 861.687 233.404 864.291 233.404C866.894 233.404 869.037 233.965 870.718 235.085C872.398 236.173 873.717 237.59 874.673 239.337C875.661 241.084 876.337 243.028 876.7 245.171C877.095 247.313 877.293 249.422 877.293 251.499C877.293 253.575 877.095 255.685 876.7 257.827C876.337 259.969 875.661 261.914 874.673 263.661C873.717 265.407 872.398 266.841 870.718 267.962C869.037 269.049 866.894 269.593 864.291 269.593C861.687 269.593 859.545 269.049 857.864 267.962C856.183 266.841 854.848 265.407 853.859 263.661C852.903 261.914 852.228 259.969 851.832 257.827C851.47 255.685 851.288 253.575 851.288 251.499ZM858.704 251.499C858.704 252.422 858.737 253.526 858.803 254.811C858.902 256.097 859.133 257.333 859.495 258.519C859.858 259.706 860.401 260.711 861.127 261.535C861.885 262.359 862.939 262.771 864.291 262.771C865.609 262.771 866.647 262.359 867.405 261.535C868.163 260.711 868.724 259.706 869.086 258.519C869.449 257.333 869.663 256.097 869.729 254.811C869.828 253.526 869.877 252.422 869.877 251.499C869.877 250.576 869.828 249.472 869.729 248.187C869.663 246.901 869.449 245.665 869.086 244.479C868.724 243.292 868.163 242.287 867.405 241.463C866.647 240.639 865.609 240.227 864.291 240.227C862.939 240.227 861.885 240.639 861.127 241.463C860.401 242.287 859.858 243.292 859.495 244.479C859.133 245.665 858.902 246.901 858.803 248.187C858.737 249.472 858.704 250.576 858.704 251.499Z" fill="#C5A063"/>
<path d="M611.063 302.623H615.629L622.813 319.737H622.94L630.06 302.623H634.626V325.229H631.561V306.646H631.497L623.866 325.229H621.823L614.192 306.646H614.128V325.229H611.063V302.623ZM639.711 310.094H642.584V325.229H639.711V310.094ZM639.04 304.666C639.04 304.092 639.243 303.602 639.647 303.198C640.073 302.772 640.573 302.559 641.148 302.559C641.722 302.559 642.212 302.772 642.616 303.198C643.042 303.602 643.255 304.092 643.255 304.666C643.255 305.241 643.042 305.741 642.616 306.167C642.212 306.571 641.722 306.774 641.148 306.774C640.573 306.774 640.073 306.571 639.647 306.167C639.243 305.741 639.04 305.241 639.04 304.666ZM662.324 325.229H659.45V323.057H659.387C658.833 323.866 658.067 324.494 657.088 324.941C656.13 325.388 655.14 325.612 654.118 325.612C652.948 325.612 651.883 325.409 650.925 325.005C649.989 324.601 649.18 324.037 648.499 323.313C647.839 322.589 647.328 321.748 646.966 320.79C646.604 319.833 646.423 318.79 646.423 317.661C646.423 316.533 646.604 315.49 646.966 314.532C647.328 313.553 647.839 312.712 648.499 312.01C649.18 311.286 649.989 310.722 650.925 310.318C651.883 309.913 652.948 309.711 654.118 309.711C655.204 309.711 656.226 309.945 657.183 310.414C658.141 310.861 658.876 311.478 659.387 312.265H659.45V301.09H662.324V325.229ZM654.469 322.93C655.236 322.93 655.928 322.802 656.545 322.546C657.162 322.27 657.684 321.908 658.109 321.461C658.535 320.993 658.865 320.439 659.099 319.801C659.333 319.141 659.45 318.428 659.45 317.661C659.45 316.895 659.333 316.193 659.099 315.554C658.865 314.894 658.535 314.341 658.109 313.894C657.684 313.425 657.162 313.064 656.545 312.808C655.928 312.531 655.236 312.393 654.469 312.393C653.703 312.393 653.011 312.531 652.394 312.808C651.777 313.064 651.255 313.425 650.83 313.894C650.404 314.341 650.074 314.894 649.84 315.554C649.606 316.193 649.489 316.895 649.489 317.661C649.489 318.428 649.606 319.141 649.84 319.801C650.074 320.439 650.404 320.993 650.83 321.461C651.255 321.908 651.777 322.27 652.394 322.546C653.011 322.802 653.703 322.93 654.469 322.93ZM676.074 302.623H680.64L687.824 319.737H687.952L695.072 302.623H699.638V325.229H696.572V306.646H696.509L688.878 325.229H686.834L679.203 306.646H679.139V325.229H676.074V302.623ZM704.563 311.946C705.371 311.201 706.308 310.648 707.372 310.286C708.437 309.903 709.501 309.711 710.565 309.711C711.672 309.711 712.619 309.849 713.407 310.126C714.216 310.403 714.876 310.775 715.386 311.244C715.897 311.712 716.27 312.255 716.504 312.872C716.759 313.468 716.887 314.096 716.887 314.756V322.483C716.887 323.015 716.898 323.504 716.919 323.951C716.94 324.398 716.972 324.824 717.015 325.229H714.461C714.397 324.462 714.365 323.696 714.365 322.93H714.301C713.662 323.909 712.907 324.601 712.034 325.005C711.161 325.409 710.15 325.612 709.001 325.612C708.298 325.612 707.628 325.516 706.989 325.324C706.351 325.133 705.787 324.845 705.297 324.462C704.829 324.079 704.456 323.611 704.179 323.057C703.903 322.483 703.764 321.823 703.764 321.078C703.764 320.099 703.977 319.279 704.403 318.619C704.85 317.959 705.446 317.427 706.191 317.023C706.957 316.597 707.841 316.299 708.841 316.129C709.863 315.937 710.948 315.841 712.098 315.841H714.205V315.203C714.205 314.82 714.131 314.437 713.982 314.053C713.833 313.67 713.609 313.33 713.311 313.032C713.013 312.712 712.641 312.468 712.194 312.297C711.747 312.106 711.214 312.01 710.597 312.01C710.044 312.01 709.554 312.063 709.128 312.17C708.724 312.276 708.351 312.414 708.011 312.585C707.67 312.734 707.362 312.915 707.085 313.127C706.808 313.34 706.542 313.543 706.287 313.734L704.563 311.946ZM712.673 317.949C711.991 317.949 711.289 317.991 710.565 318.076C709.863 318.14 709.214 318.279 708.618 318.492C708.043 318.704 707.564 319.002 707.181 319.386C706.819 319.769 706.638 320.258 706.638 320.854C706.638 321.727 706.925 322.355 707.5 322.738C708.096 323.121 708.894 323.313 709.895 323.313C710.682 323.313 711.353 323.185 711.906 322.93C712.46 322.653 712.907 322.302 713.247 321.876C713.588 321.45 713.833 320.982 713.982 320.471C714.131 319.939 714.205 319.417 714.205 318.907V317.949H712.673ZM721.056 310.094H723.929V312.425H723.993C724.185 312.021 724.44 311.659 724.759 311.339C725.079 310.999 725.43 310.712 725.813 310.477C726.217 310.243 726.654 310.062 727.122 309.935C727.59 309.786 728.059 309.711 728.527 309.711C728.995 309.711 729.421 309.775 729.804 309.903L729.676 313C729.442 312.936 729.208 312.883 728.974 312.84C728.74 312.798 728.506 312.776 728.271 312.776C726.867 312.776 725.792 313.17 725.047 313.958C724.302 314.745 723.929 315.969 723.929 317.629V325.229H721.056V310.094ZM732.873 301.09H735.747V316.672L742.26 310.126H746.251L739.195 316.991L746.858 325.229H742.771L735.747 317.374V325.229H732.873V301.09ZM751.601 318.715C751.601 319.375 751.739 319.982 752.016 320.535C752.314 321.067 752.697 321.525 753.166 321.908C753.634 322.291 754.177 322.589 754.794 322.802C755.411 323.015 756.05 323.121 756.71 323.121C757.604 323.121 758.381 322.919 759.04 322.515C759.7 322.089 760.307 321.535 760.86 320.854L763.032 322.515C761.435 324.579 759.2 325.612 756.326 325.612C755.134 325.612 754.049 325.409 753.07 325.005C752.112 324.601 751.292 324.047 750.611 323.345C749.951 322.621 749.44 321.78 749.079 320.822C748.717 319.843 748.536 318.79 748.536 317.661C748.536 316.533 748.727 315.49 749.111 314.532C749.515 313.553 750.058 312.712 750.739 312.01C751.441 311.286 752.271 310.722 753.229 310.318C754.187 309.913 755.23 309.711 756.358 309.711C757.699 309.711 758.828 309.945 759.743 310.414C760.679 310.882 761.446 311.499 762.042 312.265C762.638 313.01 763.063 313.862 763.319 314.82C763.596 315.756 763.734 316.714 763.734 317.693V318.715H751.601ZM760.669 316.416C760.647 315.778 760.541 315.192 760.349 314.66C760.179 314.128 759.913 313.67 759.551 313.287C759.189 312.883 758.732 312.574 758.178 312.361C757.646 312.127 757.018 312.01 756.295 312.01C755.592 312.01 754.943 312.148 754.347 312.425C753.772 312.68 753.283 313.021 752.878 313.447C752.474 313.872 752.154 314.351 751.92 314.884C751.707 315.394 751.601 315.905 751.601 316.416H760.669ZM775.281 312.585H771.163V319.449C771.163 319.875 771.173 320.301 771.195 320.727C771.216 321.131 771.29 321.503 771.418 321.844C771.567 322.163 771.78 322.429 772.057 322.642C772.355 322.834 772.78 322.93 773.334 322.93C773.674 322.93 774.026 322.898 774.387 322.834C774.749 322.77 775.079 322.653 775.377 322.483V325.101C775.037 325.292 774.59 325.42 774.036 325.484C773.504 325.569 773.089 325.612 772.791 325.612C771.684 325.612 770.822 325.463 770.205 325.165C769.609 324.845 769.162 324.441 768.864 323.951C768.587 323.462 768.417 322.919 768.353 322.323C768.31 321.706 768.289 321.088 768.289 320.471V312.585H764.968V310.094H768.289V305.848H771.163V310.094H775.281V312.585ZM788.61 302.623H796.56C798.007 302.623 799.199 302.825 800.136 303.23C801.073 303.613 801.807 304.113 802.339 304.73C802.893 305.326 803.276 306.007 803.489 306.774C803.701 307.519 803.808 308.242 803.808 308.945C803.808 309.647 803.701 310.382 803.489 311.148C803.276 311.893 802.893 312.574 802.339 313.191C801.807 313.787 801.073 314.288 800.136 314.692C799.199 315.075 798.007 315.267 796.56 315.267H791.675V325.229H788.61V302.623ZM791.675 312.585H795.698C796.294 312.585 796.879 312.542 797.454 312.457C798.05 312.351 798.572 312.17 799.019 311.914C799.487 311.659 799.859 311.297 800.136 310.829C800.413 310.339 800.551 309.711 800.551 308.945C800.551 308.179 800.413 307.561 800.136 307.093C799.859 306.603 799.487 306.231 799.019 305.975C798.572 305.72 798.05 305.55 797.454 305.465C796.879 305.358 796.294 305.305 795.698 305.305H791.675V312.585ZM806.802 310.094H809.676V312.425H809.739C809.931 312.021 810.186 311.659 810.506 311.339C810.825 310.999 811.176 310.712 811.559 310.477C811.964 310.243 812.4 310.062 812.868 309.935C813.337 309.786 813.805 309.711 814.273 309.711C814.742 309.711 815.167 309.775 815.55 309.903L815.423 313C815.189 312.936 814.954 312.883 814.72 312.84C814.486 312.798 814.252 312.776 814.018 312.776C812.613 312.776 811.538 313.17 810.793 313.958C810.048 314.745 809.676 315.969 809.676 317.629V325.229H806.802V310.094ZM818.843 310.094H821.716V325.229H818.843V310.094ZM818.172 304.666C818.172 304.092 818.375 303.602 818.779 303.198C819.205 302.772 819.705 302.559 820.28 302.559C820.854 302.559 821.344 302.772 821.748 303.198C822.174 303.602 822.387 304.092 822.387 304.666C822.387 305.241 822.174 305.741 821.748 306.167C821.344 306.571 820.854 306.774 820.28 306.774C819.705 306.774 819.205 306.571 818.779 306.167C818.375 305.741 818.172 305.241 818.172 304.666ZM837.114 314.117C836.582 313.564 836.017 313.149 835.421 312.872C834.847 312.574 834.155 312.425 833.346 312.425C832.558 312.425 831.867 312.574 831.271 312.872C830.696 313.149 830.206 313.543 829.802 314.053C829.419 314.543 829.121 315.118 828.908 315.778C828.716 316.416 828.621 317.087 828.621 317.789C828.621 318.492 828.738 319.162 828.972 319.801C829.206 320.418 829.536 320.961 829.962 321.429C830.387 321.897 830.898 322.27 831.494 322.546C832.09 322.802 832.761 322.93 833.506 322.93C834.315 322.93 835.006 322.791 835.581 322.515C836.156 322.217 836.688 321.791 837.178 321.237L839.221 323.281C838.476 324.111 837.603 324.707 836.603 325.069C835.624 325.431 834.581 325.612 833.474 325.612C832.303 325.612 831.228 325.42 830.249 325.037C829.291 324.654 828.461 324.122 827.759 323.441C827.056 322.738 826.513 321.908 826.13 320.95C825.747 319.971 825.555 318.896 825.555 317.725C825.555 316.555 825.747 315.48 826.13 314.5C826.513 313.521 827.045 312.68 827.727 311.978C828.429 311.276 829.259 310.733 830.217 310.35C831.196 309.945 832.282 309.743 833.474 309.743C834.581 309.743 835.634 309.945 836.635 310.35C837.656 310.733 838.54 311.329 839.285 312.138L837.114 314.117ZM843.864 318.715C843.864 319.375 844.002 319.982 844.279 320.535C844.577 321.067 844.96 321.525 845.429 321.908C845.897 322.291 846.44 322.589 847.057 322.802C847.674 323.015 848.313 323.121 848.973 323.121C849.867 323.121 850.644 322.919 851.304 322.515C851.963 322.089 852.57 321.535 853.123 320.854L855.295 322.515C853.698 324.579 851.463 325.612 848.59 325.612C847.398 325.612 846.312 325.409 845.333 325.005C844.375 324.601 843.555 324.047 842.874 323.345C842.214 322.621 841.704 321.78 841.342 320.822C840.98 319.843 840.799 318.79 840.799 317.661C840.799 316.533 840.991 315.49 841.374 314.532C841.778 313.553 842.321 312.712 843.002 312.01C843.704 311.286 844.535 310.722 845.492 310.318C846.45 309.913 847.493 309.711 848.622 309.711C849.963 309.711 851.091 309.945 852.006 310.414C852.943 310.882 853.709 311.499 854.305 312.265C854.901 313.01 855.327 313.862 855.582 314.82C855.859 315.756 855.997 316.714 855.997 317.693V318.715H843.864ZM852.932 316.416C852.911 315.778 852.804 315.192 852.613 314.66C852.442 314.128 852.176 313.67 851.814 313.287C851.453 312.883 850.995 312.574 850.441 312.361C849.909 312.127 849.281 312.01 848.558 312.01C847.855 312.01 847.206 312.148 846.61 312.425C846.035 312.68 845.546 313.021 845.141 313.447C844.737 313.872 844.418 314.351 844.183 314.884C843.971 315.394 843.864 315.905 843.864 316.416H852.932Z" fill="#4B5066"/>
<path d="M157.588 492.011L162.738 498.191L167.888 528.06V546.599H184.367L199.816 558.959L204.966 565.139C204.966 565.139 221.102 572.005 226.596 575.438V593.978H258.524L277.064 600.157L283.243 609.427L289.423 619.727L301.783 625.906H316.202L323.412 643.416H351.221C356.165 643.416 364.954 648.909 368.73 651.655V668.135L373.88 677.404L380.06 690.794H391.39C391.39 690.794 407.526 698.347 413.019 699.034L436.708 706.243V712.423V747.442C436.708 750.738 455.247 759.801 455.247 759.801V770.101L487.159 777.307C487.164 777.303 487.176 777.311 487.176 777.311L487.159 777.307C487.128 777.333 487.366 777.822 492.326 783.491C498.094 790.082 511.895 795.85 511.895 795.85L518.075 802.03C518.075 802.03 540.047 806.836 544.854 807.18L560.303 812.33V822.629L570.603 853.528L575.753 863.828L594.292 875.157L616.951 889.577C621.758 892.667 638.581 907.086 638.581 907.086C638.581 907.086 644.417 952.404 643.73 970.944H157.588V492.011Z" fill="#0FD899" fill-opacity="0.25"/>
<path d="M157.588 492.011L162.738 498.191L167.888 528.06V546.599H184.367L199.816 558.959L204.966 565.139C204.966 565.139 221.102 572.005 226.596 575.438V593.978H258.524L277.064 600.157L283.243 609.427L289.423 619.727L301.783 625.906H316.202L323.412 643.416C330.622 643.416 346.277 643.416 351.221 643.416C356.165 643.416 364.954 648.909 368.73 651.655V668.135L373.88 677.404L380.06 690.794H391.39C391.39 690.794 407.526 698.347 413.019 699.034L436.708 706.243C436.708 705.9 436.708 706.655 436.708 712.423C436.708 719.633 436.708 743.322 436.708 747.442C436.708 750.738 455.247 759.801 455.247 759.801V770.101L487.176 777.311C487.176 777.311 486.558 776.899 492.326 783.491C498.094 790.082 511.895 795.85 511.895 795.85L518.075 802.03C518.075 802.03 540.047 806.836 544.854 807.18L560.303 812.33V822.629L570.603 853.528L575.753 863.828L594.292 875.157L616.951 889.577C621.758 892.667 638.581 907.086 638.581 907.086C638.581 907.086 644.417 952.404 643.73 970.944H157.588V492.011Z" stroke="#0FD899" stroke-width="6.17978" stroke-linecap="round" stroke-linejoin="round"/>
<path d="M812.644 941.075V970.944H1311.15V537.5C1302.56 541.277 1298.5 563 1298.5 563L1286.5 588.5L1268 598L1257 633L1228 669.5L1224 691.5L1193.5 697.5C1189.38 699.148 1169.7 711.94 1164.89 714L1140.5 720.5C1138.1 724.963 1125.75 739.304 1125.75 744.109C1125.75 749 1094 760.5 1094 760.5C1089.5 785.5 1073.5 789 1063 794C1050.88 799.771 1059.81 809.94 1055 812C1024.19 812 1016.8 818.408 1013.5 825C1009.38 833.24 987.62 851.41 983.5 854.5C980.204 856.972 947.569 865 947.569 865L898.5 875.5L893 892.5L879.5 908.5L868.262 929.745H847.663L826.034 941.075H812.644Z" fill="#CC2323" fill-opacity="0.25" stroke="#CC2323" stroke-width="6.17978" stroke-linejoin="bevel"/>
<path d="M157.588 348.846V970.944H1311.15V348.846" stroke="#4F4F4F" stroke-width="6.17978"/>
<path d="M131.12 1020.2C132.56 1020.2 134.053 1020.39 135.6 1020.76C137.147 1021.13 138.507 1021.79 139.68 1022.72L135.84 1027.4C135.2 1026.84 134.467 1026.44 133.64 1026.2C132.813 1025.93 131.973 1025.77 131.12 1025.72V1032.08L134.96 1033.2C136.72 1033.73 138.12 1034.61 139.16 1035.84C140.227 1037.04 140.76 1038.57 140.76 1040.44C140.76 1041.85 140.507 1043.09 140 1044.16C139.493 1045.23 138.8 1046.13 137.92 1046.88C137.04 1047.63 136.013 1048.21 134.84 1048.64C133.667 1049.07 132.427 1049.35 131.12 1049.48V1052.28H128.48V1049.48C126.72 1049.48 124.96 1049.24 123.2 1048.76C121.467 1048.28 119.933 1047.44 118.6 1046.24L122.84 1041.48C123.533 1042.33 124.373 1042.95 125.36 1043.32C126.347 1043.67 127.387 1043.88 128.48 1043.96V1037.2L125.56 1036.32C123.533 1035.68 121.987 1034.79 120.92 1033.64C119.88 1032.47 119.36 1030.87 119.36 1028.84C119.36 1027.59 119.613 1026.45 120.12 1025.44C120.627 1024.43 121.293 1023.56 122.12 1022.84C122.973 1022.12 123.947 1021.53 125.04 1021.08C126.16 1020.63 127.307 1020.33 128.48 1020.2V1017.4H131.12V1020.2ZM128.48 1025.84C127.733 1026 127.067 1026.28 126.48 1026.68C125.893 1027.08 125.6 1027.71 125.6 1028.56C125.6 1029.17 125.72 1029.65 125.96 1030C126.2 1030.35 126.48 1030.63 126.8 1030.84C127.12 1031.03 127.44 1031.16 127.76 1031.24C128.08 1031.32 128.32 1031.39 128.48 1031.44V1025.84ZM131.12 1043.88C131.52 1043.8 131.92 1043.69 132.32 1043.56C132.747 1043.4 133.12 1043.2 133.44 1042.96C133.76 1042.72 134.013 1042.44 134.2 1042.12C134.413 1041.77 134.52 1041.37 134.52 1040.92C134.52 1040.49 134.44 1040.13 134.28 1039.84C134.147 1039.55 133.96 1039.31 133.72 1039.12C133.48 1038.91 133.2 1038.73 132.88 1038.6C132.56 1038.44 132.227 1038.29 131.88 1038.16L131.12 1037.88V1043.88ZM153.192 1027.4L147.512 1032.4L144.112 1028.48L153.352 1020.68H158.952V1049H153.192V1027.4ZM166.664 1034.84C166.664 1033.16 166.81 1031.45 167.104 1029.72C167.424 1027.99 167.97 1026.41 168.744 1025C169.544 1023.59 170.624 1022.44 171.984 1021.56C173.344 1020.65 175.077 1020.2 177.184 1020.2C179.29 1020.2 181.024 1020.65 182.384 1021.56C183.744 1022.44 184.81 1023.59 185.584 1025C186.384 1026.41 186.93 1027.99 187.224 1029.72C187.544 1031.45 187.704 1033.16 187.704 1034.84C187.704 1036.52 187.544 1038.23 187.224 1039.96C186.93 1041.69 186.384 1043.27 185.584 1044.68C184.81 1046.09 183.744 1047.25 182.384 1048.16C181.024 1049.04 179.29 1049.48 177.184 1049.48C175.077 1049.48 173.344 1049.04 171.984 1048.16C170.624 1047.25 169.544 1046.09 168.744 1044.68C167.97 1043.27 167.424 1041.69 167.104 1039.96C166.81 1038.23 166.664 1036.52 166.664 1034.84ZM172.664 1034.84C172.664 1035.59 172.69 1036.48 172.744 1037.52C172.824 1038.56 173.01 1039.56 173.304 1040.52C173.597 1041.48 174.037 1042.29 174.624 1042.96C175.237 1043.63 176.09 1043.96 177.184 1043.96C178.25 1043.96 179.09 1043.63 179.704 1042.96C180.317 1042.29 180.77 1041.48 181.064 1040.52C181.357 1039.56 181.53 1038.56 181.584 1037.52C181.664 1036.48 181.704 1035.59 181.704 1034.84C181.704 1034.09 181.664 1033.2 181.584 1032.16C181.53 1031.12 181.357 1030.12 181.064 1029.16C180.77 1028.2 180.317 1027.39 179.704 1026.72C179.09 1026.05 178.25 1025.72 177.184 1025.72C176.09 1025.72 175.237 1026.05 174.624 1026.72C174.037 1027.39 173.597 1028.2 173.304 1029.16C173.01 1030.12 172.824 1031.12 172.744 1032.16C172.69 1033.2 172.664 1034.09 172.664 1034.84ZM190.336 1034.84C190.336 1033.16 190.482 1031.45 190.776 1029.72C191.096 1027.99 191.642 1026.41 192.416 1025C193.216 1023.59 194.296 1022.44 195.656 1021.56C197.016 1020.65 198.749 1020.2 200.856 1020.2C202.962 1020.2 204.696 1020.65 206.056 1021.56C207.416 1022.44 208.482 1023.59 209.256 1025C210.056 1026.41 210.602 1027.99 210.896 1029.72C211.216 1031.45 211.376 1033.16 211.376 1034.84C211.376 1036.52 211.216 1038.23 210.896 1039.96C210.602 1041.69 210.056 1043.27 209.256 1044.68C208.482 1046.09 207.416 1047.25 206.056 1048.16C204.696 1049.04 202.962 1049.48 200.856 1049.48C198.749 1049.48 197.016 1049.04 195.656 1048.16C194.296 1047.25 193.216 1046.09 192.416 1044.68C191.642 1043.27 191.096 1041.69 190.776 1039.96C190.482 1038.23 190.336 1036.52 190.336 1034.84ZM196.336 1034.84C196.336 1035.59 196.362 1036.48 196.416 1037.52C196.496 1038.56 196.682 1039.56 196.976 1040.52C197.269 1041.48 197.709 1042.29 198.296 1042.96C198.909 1043.63 199.762 1043.96 200.856 1043.96C201.922 1043.96 202.762 1043.63 203.376 1042.96C203.989 1042.29 204.442 1041.48 204.736 1040.52C205.029 1039.56 205.202 1038.56 205.256 1037.52C205.336 1036.48 205.376 1035.59 205.376 1034.84C205.376 1034.09 205.336 1033.2 205.256 1032.16C205.202 1031.12 205.029 1030.12 204.736 1029.16C204.442 1028.2 203.989 1027.39 203.376 1026.72C202.762 1026.05 201.922 1025.72 200.856 1025.72C199.762 1025.72 198.909 1026.05 198.296 1026.72C197.709 1027.39 197.269 1028.2 196.976 1029.16C196.682 1030.12 196.496 1031.12 196.416 1032.16C196.362 1033.2 196.336 1034.09 196.336 1034.84ZM216.328 1042.52H222.088L218.488 1053.8H213.368L216.328 1042.52ZM226.483 1042.64L237.483 1032.76C238.043 1032.25 238.603 1031.68 239.163 1031.04C239.723 1030.4 240.003 1029.65 240.003 1028.8C240.003 1027.84 239.657 1027.09 238.963 1026.56C238.27 1026 237.457 1025.72 236.523 1025.72C235.403 1025.72 234.523 1026.07 233.883 1026.76C233.27 1027.45 232.923 1028.31 232.843 1029.32L226.843 1028.88C226.923 1027.41 227.23 1026.15 227.763 1025.08C228.297 1023.99 229.003 1023.08 229.883 1022.36C230.763 1021.64 231.79 1021.11 232.963 1020.76C234.163 1020.39 235.457 1020.2 236.843 1020.2C238.123 1020.2 239.323 1020.39 240.443 1020.76C241.563 1021.11 242.537 1021.64 243.363 1022.36C244.19 1023.05 244.83 1023.93 245.283 1025C245.763 1026.07 246.003 1027.31 246.003 1028.72C246.003 1029.63 245.91 1030.45 245.723 1031.2C245.537 1031.92 245.27 1032.59 244.923 1033.2C244.603 1033.79 244.217 1034.33 243.763 1034.84C243.31 1035.35 242.817 1035.84 242.283 1036.32L233.683 1043.72H246.243V1049H226.483V1042.64ZM249.515 1034.84C249.515 1033.16 249.662 1031.45 249.955 1029.72C250.275 1027.99 250.822 1026.41 251.595 1025C252.395 1023.59 253.475 1022.44 254.835 1021.56C256.195 1020.65 257.929 1020.2 260.035 1020.2C262.142 1020.2 263.875 1020.65 265.235 1021.56C266.595 1022.44 267.662 1023.59 268.435 1025C269.235 1026.41 269.782 1027.99 270.075 1029.72C270.395 1031.45 270.555 1033.16 270.555 1034.84C270.555 1036.52 270.395 1038.23 270.075 1039.96C269.782 1041.69 269.235 1043.27 268.435 1044.68C267.662 1046.09 266.595 1047.25 265.235 1048.16C263.875 1049.04 262.142 1049.48 260.035 1049.48C257.929 1049.48 256.195 1049.04 254.835 1048.16C253.475 1047.25 252.395 1046.09 251.595 1044.68C250.822 1043.27 250.275 1041.69 249.955 1039.96C249.662 1038.23 249.515 1036.52 249.515 1034.84ZM255.515 1034.84C255.515 1035.59 255.542 1036.48 255.595 1037.52C255.675 1038.56 255.862 1039.56 256.155 1040.52C256.449 1041.48 256.889 1042.29 257.475 1042.96C258.089 1043.63 258.942 1043.96 260.035 1043.96C261.102 1043.96 261.942 1043.63 262.555 1042.96C263.169 1042.29 263.622 1041.48 263.915 1040.52C264.209 1039.56 264.382 1038.56 264.435 1037.52C264.515 1036.48 264.555 1035.59 264.555 1034.84C264.555 1034.09 264.515 1033.2 264.435 1032.16C264.382 1031.12 264.209 1030.12 263.915 1029.16C263.622 1028.2 263.169 1027.39 262.555 1026.72C261.942 1026.05 261.102 1025.72 260.035 1025.72C258.942 1025.72 258.089 1026.05 257.475 1026.72C256.889 1027.39 256.449 1028.2 256.155 1029.16C255.862 1030.12 255.675 1031.12 255.595 1032.16C255.542 1033.2 255.515 1034.09 255.515 1034.84ZM273.187 1034.84C273.187 1033.16 273.334 1031.45 273.627 1029.72C273.947 1027.99 274.494 1026.41 275.267 1025C276.067 1023.59 277.147 1022.44 278.507 1021.56C279.867 1020.65 281.601 1020.2 283.707 1020.2C285.814 1020.2 287.547 1020.65 288.907 1021.56C290.267 1022.44 291.334 1023.59 292.107 1025C292.907 1026.41 293.454 1027.99 293.747 1029.72C294.067 1031.45 294.227 1033.16 294.227 1034.84C294.227 1036.52 294.067 1038.23 293.747 1039.96C293.454 1041.69 292.907 1043.27 292.107 1044.68C291.334 1046.09 290.267 1047.25 288.907 1048.16C287.547 1049.04 285.814 1049.48 283.707 1049.48C281.601 1049.48 279.867 1049.04 278.507 1048.16C277.147 1047.25 276.067 1046.09 275.267 1044.68C274.494 1043.27 273.947 1041.69 273.627 1039.96C273.334 1038.23 273.187 1036.52 273.187 1034.84ZM279.187 1034.84C279.187 1035.59 279.214 1036.48 279.267 1037.52C279.347 1038.56 279.534 1039.56 279.827 1040.52C280.121 1041.48 280.561 1042.29 281.147 1042.96C281.761 1043.63 282.614 1043.96 283.707 1043.96C284.774 1043.96 285.614 1043.63 286.227 1042.96C286.841 1042.29 287.294 1041.48 287.587 1040.52C287.881 1039.56 288.054 1038.56 288.107 1037.52C288.187 1036.48 288.227 1035.59 288.227 1034.84C288.227 1034.09 288.187 1033.2 288.107 1032.16C288.054 1031.12 287.881 1030.12 287.587 1029.16C287.294 1028.2 286.841 1027.39 286.227 1026.72C285.614 1026.05 284.774 1025.72 283.707 1025.72C282.614 1025.72 281.761 1026.05 281.147 1026.72C280.561 1027.39 280.121 1028.2 279.827 1029.16C279.534 1030.12 279.347 1031.12 279.267 1032.16C279.214 1033.2 279.187 1034.09 279.187 1034.84ZM427.018 1020.2C428.458 1020.2 429.952 1020.39 431.498 1020.76C433.045 1021.13 434.405 1021.79 435.578 1022.72L431.738 1027.4C431.098 1026.84 430.365 1026.44 429.538 1026.2C428.712 1025.93 427.872 1025.77 427.018 1025.72V1032.08L430.858 1033.2C432.618 1033.73 434.018 1034.61 435.058 1035.84C436.125 1037.04 436.658 1038.57 436.658 1040.44C436.658 1041.85 436.405 1043.09 435.898 1044.16C435.392 1045.23 434.698 1046.13 433.818 1046.88C432.938 1047.63 431.912 1048.21 430.738 1048.64C429.565 1049.07 428.325 1049.35 427.018 1049.48V1052.28H424.378V1049.48C422.618 1049.48 420.858 1049.24 419.098 1048.76C417.365 1048.28 415.832 1047.44 414.498 1046.24L418.738 1041.48C419.432 1042.33 420.272 1042.95 421.258 1043.32C422.245 1043.67 423.285 1043.88 424.378 1043.96V1037.2L421.458 1036.32C419.432 1035.68 417.885 1034.79 416.818 1033.64C415.778 1032.47 415.258 1030.87 415.258 1028.84C415.258 1027.59 415.512 1026.45 416.018 1025.44C416.525 1024.43 417.192 1023.56 418.018 1022.84C418.872 1022.12 419.845 1021.53 420.938 1021.08C422.058 1020.63 423.205 1020.33 424.378 1020.2V1017.4H427.018V1020.2ZM424.378 1025.84C423.632 1026 422.965 1026.28 422.378 1026.68C421.792 1027.08 421.498 1027.71 421.498 1028.56C421.498 1029.17 421.618 1029.65 421.858 1030C422.098 1030.35 422.378 1030.63 422.698 1030.84C423.018 1031.03 423.338 1031.16 423.658 1031.24C423.978 1031.32 424.218 1031.39 424.378 1031.44V1025.84ZM427.018 1043.88C427.418 1043.8 427.818 1043.69 428.218 1043.56C428.645 1043.4 429.018 1043.2 429.338 1042.96C429.658 1042.72 429.912 1042.44 430.098 1042.12C430.312 1041.77 430.418 1041.37 430.418 1040.92C430.418 1040.49 430.338 1040.13 430.178 1039.84C430.045 1039.55 429.858 1039.31 429.618 1039.12C429.378 1038.91 429.098 1038.73 428.778 1038.6C428.458 1038.44 428.125 1038.29 427.778 1038.16L427.018 1037.88V1043.88ZM449.09 1027.4L443.41 1032.4L440.01 1028.48L449.25 1020.68H454.85V1049H449.09V1027.4ZM462.562 1034.84C462.562 1033.16 462.709 1031.45 463.002 1029.72C463.322 1027.99 463.869 1026.41 464.642 1025C465.442 1023.59 466.522 1022.44 467.882 1021.56C469.242 1020.65 470.976 1020.2 473.082 1020.2C475.189 1020.2 476.922 1020.65 478.282 1021.56C479.642 1022.44 480.709 1023.59 481.482 1025C482.282 1026.41 482.829 1027.99 483.122 1029.72C483.442 1031.45 483.602 1033.16 483.602 1034.84C483.602 1036.52 483.442 1038.23 483.122 1039.96C482.829 1041.69 482.282 1043.27 481.482 1044.68C480.709 1046.09 479.642 1047.25 478.282 1048.16C476.922 1049.04 475.189 1049.48 473.082 1049.48C470.976 1049.48 469.242 1049.04 467.882 1048.16C466.522 1047.25 465.442 1046.09 464.642 1044.68C463.869 1043.27 463.322 1041.69 463.002 1039.96C462.709 1038.23 462.562 1036.52 462.562 1034.84ZM468.562 1034.84C468.562 1035.59 468.589 1036.48 468.642 1037.52C468.722 1038.56 468.909 1039.56 469.202 1040.52C469.496 1041.48 469.936 1042.29 470.522 1042.96C471.136 1043.63 471.989 1043.96 473.082 1043.96C474.149 1043.96 474.989 1043.63 475.602 1042.96C476.216 1042.29 476.669 1041.48 476.962 1040.52C477.256 1039.56 477.429 1038.56 477.482 1037.52C477.562 1036.48 477.602 1035.59 477.602 1034.84C477.602 1034.09 477.562 1033.2 477.482 1032.16C477.429 1031.12 477.256 1030.12 476.962 1029.16C476.669 1028.2 476.216 1027.39 475.602 1026.72C474.989 1026.05 474.149 1025.72 473.082 1025.72C471.989 1025.72 471.136 1026.05 470.522 1026.72C469.936 1027.39 469.496 1028.2 469.202 1029.16C468.909 1030.12 468.722 1031.12 468.642 1032.16C468.589 1033.2 468.562 1034.09 468.562 1034.84ZM486.234 1034.84C486.234 1033.16 486.381 1031.45 486.674 1029.72C486.994 1027.99 487.541 1026.41 488.314 1025C489.114 1023.59 490.194 1022.44 491.554 1021.56C492.914 1020.65 494.647 1020.2 496.754 1020.2C498.861 1020.2 500.594 1020.65 501.954 1021.56C503.314 1022.44 504.381 1023.59 505.154 1025C505.954 1026.41 506.501 1027.99 506.794 1029.72C507.114 1031.45 507.274 1033.16 507.274 1034.84C507.274 1036.52 507.114 1038.23 506.794 1039.96C506.501 1041.69 505.954 1043.27 505.154 1044.68C504.381 1046.09 503.314 1047.25 501.954 1048.16C500.594 1049.04 498.861 1049.48 496.754 1049.48C494.647 1049.48 492.914 1049.04 491.554 1048.16C490.194 1047.25 489.114 1046.09 488.314 1044.68C487.541 1043.27 486.994 1041.69 486.674 1039.96C486.381 1038.23 486.234 1036.52 486.234 1034.84ZM492.234 1034.84C492.234 1035.59 492.261 1036.48 492.314 1037.52C492.394 1038.56 492.581 1039.56 492.874 1040.52C493.167 1041.48 493.607 1042.29 494.194 1042.96C494.807 1043.63 495.661 1043.96 496.754 1043.96C497.821 1043.96 498.661 1043.63 499.274 1042.96C499.887 1042.29 500.341 1041.48 500.634 1040.52C500.927 1039.56 501.101 1038.56 501.154 1037.52C501.234 1036.48 501.274 1035.59 501.274 1034.84C501.274 1034.09 501.234 1033.2 501.154 1032.16C501.101 1031.12 500.927 1030.12 500.634 1029.16C500.341 1028.2 499.887 1027.39 499.274 1026.72C498.661 1026.05 497.821 1025.72 496.754 1025.72C495.661 1025.72 494.807 1026.05 494.194 1026.72C493.607 1027.39 493.167 1028.2 492.874 1029.16C492.581 1030.12 492.394 1031.12 492.314 1032.16C492.261 1033.2 492.234 1034.09 492.234 1034.84ZM512.226 1042.52H517.986L514.386 1053.8H509.266L512.226 1042.52ZM533.742 1043.32H521.382V1038.28L532.942 1020.68H539.502V1038.28H543.142V1043.32H539.502V1049H533.742V1043.32ZM533.742 1028.52H533.662L527.382 1038.28H533.742V1028.52ZM545.414 1034.84C545.414 1033.16 545.56 1031.45 545.854 1029.72C546.174 1027.99 546.72 1026.41 547.494 1025C548.294 1023.59 549.374 1022.44 550.734 1021.56C552.094 1020.65 553.827 1020.2 555.934 1020.2C558.04 1020.2 559.774 1020.65 561.134 1021.56C562.494 1022.44 563.56 1023.59 564.334 1025C565.134 1026.41 565.68 1027.99 565.974 1029.72C566.294 1031.45 566.454 1033.16 566.454 1034.84C566.454 1036.52 566.294 1038.23 565.974 1039.96C565.68 1041.69 565.134 1043.27 564.334 1044.68C563.56 1046.09 562.494 1047.25 561.134 1048.16C559.774 1049.04 558.04 1049.48 555.934 1049.48C553.827 1049.48 552.094 1049.04 550.734 1048.16C549.374 1047.25 548.294 1046.09 547.494 1044.68C546.72 1043.27 546.174 1041.69 545.854 1039.96C545.56 1038.23 545.414 1036.52 545.414 1034.84ZM551.414 1034.84C551.414 1035.59 551.44 1036.48 551.494 1037.52C551.574 1038.56 551.76 1039.56 552.054 1040.52C552.347 1041.48 552.787 1042.29 553.374 1042.96C553.987 1043.63 554.84 1043.96 555.934 1043.96C557 1043.96 557.84 1043.63 558.454 1042.96C559.067 1042.29 559.52 1041.48 559.814 1040.52C560.107 1039.56 560.28 1038.56 560.334 1037.52C560.414 1036.48 560.454 1035.59 560.454 1034.84C560.454 1034.09 560.414 1033.2 560.334 1032.16C560.28 1031.12 560.107 1030.12 559.814 1029.16C559.52 1028.2 559.067 1027.39 558.454 1026.72C557.84 1026.05 557 1025.72 555.934 1025.72C554.84 1025.72 553.987 1026.05 553.374 1026.72C552.787 1027.39 552.347 1028.2 552.054 1029.16C551.76 1030.12 551.574 1031.12 551.494 1032.16C551.44 1033.2 551.414 1034.09 551.414 1034.84ZM569.086 1034.84C569.086 1033.16 569.232 1031.45 569.526 1029.72C569.846 1027.99 570.392 1026.41 571.166 1025C571.966 1023.59 573.046 1022.44 574.406 1021.56C575.766 1020.65 577.499 1020.2 579.606 1020.2C581.712 1020.2 583.446 1020.65 584.806 1021.56C586.166 1022.44 587.232 1023.59 588.006 1025C588.806 1026.41 589.352 1027.99 589.646 1029.72C589.966 1031.45 590.126 1033.16 590.126 1034.84C590.126 1036.52 589.966 1038.23 589.646 1039.96C589.352 1041.69 588.806 1043.27 588.006 1044.68C587.232 1046.09 586.166 1047.25 584.806 1048.16C583.446 1049.04 581.712 1049.48 579.606 1049.48C577.499 1049.48 575.766 1049.04 574.406 1048.16C573.046 1047.25 571.966 1046.09 571.166 1044.68C570.392 1043.27 569.846 1041.69 569.526 1039.96C569.232 1038.23 569.086 1036.52 569.086 1034.84ZM575.086 1034.84C575.086 1035.59 575.112 1036.48 575.166 1037.52C575.246 1038.56 575.432 1039.56 575.726 1040.52C576.019 1041.48 576.459 1042.29 577.046 1042.96C577.659 1043.63 578.512 1043.96 579.606 1043.96C580.672 1043.96 581.512 1043.63 582.126 1042.96C582.739 1042.29 583.192 1041.48 583.486 1040.52C583.779 1039.56 583.952 1038.56 584.006 1037.52C584.086 1036.48 584.126 1035.59 584.126 1034.84C584.126 1034.09 584.086 1033.2 584.006 1032.16C583.952 1031.12 583.779 1030.12 583.486 1029.16C583.192 1028.2 582.739 1027.39 582.126 1026.72C581.512 1026.05 580.672 1025.72 579.606 1025.72C578.512 1025.72 577.659 1026.05 577.046 1026.72C576.459 1027.39 576.019 1028.2 575.726 1029.16C575.432 1030.12 575.246 1031.12 575.166 1032.16C575.112 1033.2 575.086 1034.09 575.086 1034.84ZM758.425 1020.2C759.865 1020.2 761.358 1020.39 762.905 1020.76C764.451 1021.13 765.811 1021.79 766.985 1022.72L763.145 1027.4C762.505 1026.84 761.771 1026.44 760.945 1026.2C760.118 1025.93 759.278 1025.77 758.425 1025.72V1032.08L762.265 1033.2C764.025 1033.73 765.425 1034.61 766.465 1035.84C767.531 1037.04 768.065 1038.57 768.065 1040.44C768.065 1041.85 767.811 1043.09 767.305 1044.16C766.798 1045.23 766.105 1046.13 765.225 1046.88C764.345 1047.63 763.318 1048.21 762.145 1048.64C760.971 1049.07 759.731 1049.35 758.425 1049.48V1052.28H755.785V1049.48C754.025 1049.48 752.265 1049.24 750.505 1048.76C748.771 1048.28 747.238 1047.44 745.905 1046.24L750.145 1041.48C750.838 1042.33 751.678 1042.95 752.665 1043.32C753.651 1043.67 754.691 1043.88 755.785 1043.96V1037.2L752.865 1036.32C750.838 1035.68 749.291 1034.79 748.225 1033.64C747.185 1032.47 746.665 1030.87 746.665 1028.84C746.665 1027.59 746.918 1026.45 747.425 1025.44C747.931 1024.43 748.598 1023.56 749.425 1022.84C750.278 1022.12 751.251 1021.53 752.345 1021.08C753.465 1020.63 754.611 1020.33 755.785 1020.2V1017.4H758.425V1020.2ZM755.785 1025.84C755.038 1026 754.371 1026.28 753.785 1026.68C753.198 1027.08 752.905 1027.71 752.905 1028.56C752.905 1029.17 753.025 1029.65 753.265 1030C753.505 1030.35 753.785 1030.63 754.105 1030.84C754.425 1031.03 754.745 1031.16 755.065 1031.24C755.385 1031.32 755.625 1031.39 755.785 1031.44V1025.84ZM758.425 1043.88C758.825 1043.8 759.225 1043.69 759.625 1043.56C760.051 1043.4 760.425 1043.2 760.745 1042.96C761.065 1042.72 761.318 1042.44 761.505 1042.12C761.718 1041.77 761.825 1041.37 761.825 1040.92C761.825 1040.49 761.745 1040.13 761.585 1039.84C761.451 1039.55 761.265 1039.31 761.025 1039.12C760.785 1038.91 760.505 1038.73 760.185 1038.6C759.865 1038.44 759.531 1038.29 759.185 1038.16L758.425 1037.88V1043.88ZM780.497 1027.4L774.817 1032.4L771.417 1028.48L780.657 1020.68H786.257V1049H780.497V1027.4ZM793.968 1034.84C793.968 1033.16 794.115 1031.45 794.408 1029.72C794.728 1027.99 795.275 1026.41 796.048 1025C796.848 1023.59 797.928 1022.44 799.288 1021.56C800.648 1020.65 802.382 1020.2 804.488 1020.2C806.595 1020.2 808.328 1020.65 809.688 1021.56C811.048 1022.44 812.115 1023.59 812.888 1025C813.688 1026.41 814.235 1027.99 814.528 1029.72C814.848 1031.45 815.008 1033.16 815.008 1034.84C815.008 1036.52 814.848 1038.23 814.528 1039.96C814.235 1041.69 813.688 1043.27 812.888 1044.68C812.115 1046.09 811.048 1047.25 809.688 1048.16C808.328 1049.04 806.595 1049.48 804.488 1049.48C802.382 1049.48 800.648 1049.04 799.288 1048.16C797.928 1047.25 796.848 1046.09 796.048 1044.68C795.275 1043.27 794.728 1041.69 794.408 1039.96C794.115 1038.23 793.968 1036.52 793.968 1034.84ZM799.968 1034.84C799.968 1035.59 799.995 1036.48 800.048 1037.52C800.128 1038.56 800.315 1039.56 800.608 1040.52C800.902 1041.48 801.342 1042.29 801.928 1042.96C802.542 1043.63 803.395 1043.96 804.488 1043.96C805.555 1043.96 806.395 1043.63 807.008 1042.96C807.622 1042.29 808.075 1041.48 808.368 1040.52C808.662 1039.56 808.835 1038.56 808.888 1037.52C808.968 1036.48 809.008 1035.59 809.008 1034.84C809.008 1034.09 808.968 1033.2 808.888 1032.16C808.835 1031.12 808.662 1030.12 808.368 1029.16C808.075 1028.2 807.622 1027.39 807.008 1026.72C806.395 1026.05 805.555 1025.72 804.488 1025.72C803.395 1025.72 802.542 1026.05 801.928 1026.72C801.342 1027.39 800.902 1028.2 800.608 1029.16C800.315 1030.12 800.128 1031.12 800.048 1032.16C799.995 1033.2 799.968 1034.09 799.968 1034.84ZM817.64 1034.84C817.64 1033.16 817.787 1031.45 818.08 1029.72C818.4 1027.99 818.947 1026.41 819.72 1025C820.52 1023.59 821.6 1022.44 822.96 1021.56C824.32 1020.65 826.054 1020.2 828.16 1020.2C830.267 1020.2 832 1020.65 833.36 1021.56C834.72 1022.44 835.787 1023.59 836.56 1025C837.36 1026.41 837.907 1027.99 838.2 1029.72C838.52 1031.45 838.68 1033.16 838.68 1034.84C838.68 1036.52 838.52 1038.23 838.2 1039.96C837.907 1041.69 837.36 1043.27 836.56 1044.68C835.787 1046.09 834.72 1047.25 833.36 1048.16C832 1049.04 830.267 1049.48 828.16 1049.48C826.054 1049.48 824.32 1049.04 822.96 1048.16C821.6 1047.25 820.52 1046.09 819.72 1044.68C818.947 1043.27 818.4 1041.69 818.08 1039.96C817.787 1038.23 817.64 1036.52 817.64 1034.84ZM823.64 1034.84C823.64 1035.59 823.667 1036.48 823.72 1037.52C823.8 1038.56 823.987 1039.56 824.28 1040.52C824.574 1041.48 825.014 1042.29 825.6 1042.96C826.214 1043.63 827.067 1043.96 828.16 1043.96C829.227 1043.96 830.067 1043.63 830.68 1042.96C831.294 1042.29 831.747 1041.48 832.04 1040.52C832.334 1039.56 832.507 1038.56 832.56 1037.52C832.64 1036.48 832.68 1035.59 832.68 1034.84C832.68 1034.09 832.64 1033.2 832.56 1032.16C832.507 1031.12 832.334 1030.12 832.04 1029.16C831.747 1028.2 831.294 1027.39 830.68 1026.72C830.067 1026.05 829.227 1025.72 828.16 1025.72C827.067 1025.72 826.214 1026.05 825.6 1026.72C825.014 1027.39 824.574 1028.2 824.28 1029.16C823.987 1030.12 823.8 1031.12 823.72 1032.16C823.667 1033.2 823.64 1034.09 823.64 1034.84ZM843.632 1042.52H849.392L845.792 1053.8H840.672L843.632 1042.52ZM863.308 1030.8C863.628 1030.72 863.948 1030.65 864.268 1030.6C864.588 1030.55 864.921 1030.52 865.268 1030.52C866.601 1030.52 867.815 1030.76 868.908 1031.24C870.001 1031.72 870.935 1032.37 871.708 1033.2C872.481 1034.03 873.081 1035.01 873.508 1036.16C873.935 1037.28 874.148 1038.48 874.148 1039.76C874.148 1041.23 873.868 1042.56 873.308 1043.76C872.775 1044.93 872.028 1045.95 871.068 1046.8C870.135 1047.65 869.015 1048.32 867.708 1048.8C866.428 1049.25 865.055 1049.48 863.588 1049.48C862.095 1049.48 860.708 1049.25 859.428 1048.8C858.148 1048.32 857.028 1047.65 856.068 1046.8C855.135 1045.95 854.388 1044.93 853.828 1043.76C853.295 1042.56 853.028 1041.23 853.028 1039.76C853.028 1038.75 853.121 1037.83 853.308 1037C853.495 1036.15 853.735 1035.35 854.028 1034.6C854.348 1033.85 854.708 1033.15 855.108 1032.48C855.535 1031.79 855.975 1031.08 856.428 1030.36L862.628 1020.68H869.948L863.308 1030.8ZM868.148 1039.52C868.148 1038.24 867.721 1037.19 866.868 1036.36C866.041 1035.51 864.948 1035.08 863.588 1035.08C862.228 1035.08 861.121 1035.51 860.268 1036.36C859.441 1037.19 859.028 1038.24 859.028 1039.52C859.028 1040.8 859.441 1041.87 860.268 1042.72C861.121 1043.55 862.228 1043.96 863.588 1043.96C864.948 1043.96 866.041 1043.55 866.868 1042.72C867.721 1041.87 868.148 1040.8 868.148 1039.52ZM876.82 1034.84C876.82 1033.16 876.967 1031.45 877.26 1029.72C877.58 1027.99 878.127 1026.41 878.9 1025C879.7 1023.59 880.78 1022.44 882.14 1021.56C883.5 1020.65 885.233 1020.2 887.34 1020.2C889.447 1020.2 891.18 1020.65 892.54 1021.56C893.9 1022.44 894.967 1023.59 895.74 1025C896.54 1026.41 897.087 1027.99 897.38 1029.72C897.7 1031.45 897.86 1033.16 897.86 1034.84C897.86 1036.52 897.7 1038.23 897.38 1039.96C897.087 1041.69 896.54 1043.27 895.74 1044.68C894.967 1046.09 893.9 1047.25 892.54 1048.16C891.18 1049.04 889.447 1049.48 887.34 1049.48C885.233 1049.48 883.5 1049.04 882.14 1048.16C880.78 1047.25 879.7 1046.09 878.9 1044.68C878.127 1043.27 877.58 1041.69 877.26 1039.96C876.967 1038.23 876.82 1036.52 876.82 1034.84ZM882.82 1034.84C882.82 1035.59 882.847 1036.48 882.9 1037.52C882.98 1038.56 883.167 1039.56 883.46 1040.52C883.753 1041.48 884.193 1042.29 884.78 1042.96C885.393 1043.63 886.247 1043.96 887.34 1043.96C888.407 1043.96 889.247 1043.63 889.86 1042.96C890.473 1042.29 890.927 1041.48 891.22 1040.52C891.513 1039.56 891.687 1038.56 891.74 1037.52C891.82 1036.48 891.86 1035.59 891.86 1034.84C891.86 1034.09 891.82 1033.2 891.74 1032.16C891.687 1031.12 891.513 1030.12 891.22 1029.16C890.927 1028.2 890.473 1027.39 889.86 1026.72C889.247 1026.05 888.407 1025.72 887.34 1025.72C886.247 1025.72 885.393 1026.05 884.78 1026.72C884.193 1027.39 883.753 1028.2 883.46 1029.16C883.167 1030.12 882.98 1031.12 882.9 1032.16C882.847 1033.2 882.82 1034.09 882.82 1034.84ZM900.492 1034.84C900.492 1033.16 900.639 1031.45 900.932 1029.72C901.252 1027.99 901.799 1026.41 902.572 1025C903.372 1023.59 904.452 1022.44 905.812 1021.56C907.172 1020.65 908.905 1020.2 911.012 1020.2C913.119 1020.2 914.852 1020.65 916.212 1021.56C917.572 1022.44 918.639 1023.59 919.412 1025C920.212 1026.41 920.759 1027.99 921.052 1029.72C921.372 1031.45 921.532 1033.16 921.532 1034.84C921.532 1036.52 921.372 1038.23 921.052 1039.96C920.759 1041.69 920.212 1043.27 919.412 1044.68C918.639 1046.09 917.572 1047.25 916.212 1048.16C914.852 1049.04 913.119 1049.48 911.012 1049.48C908.905 1049.48 907.172 1049.04 905.812 1048.16C904.452 1047.25 903.372 1046.09 902.572 1044.68C901.799 1043.27 901.252 1041.69 900.932 1039.96C900.639 1038.23 900.492 1036.52 900.492 1034.84ZM906.492 1034.84C906.492 1035.59 906.519 1036.48 906.572 1037.52C906.652 1038.56 906.839 1039.56 907.132 1040.52C907.425 1041.48 907.865 1042.29 908.452 1042.96C909.065 1043.63 909.919 1043.96 911.012 1043.96C912.079 1043.96 912.919 1043.63 913.532 1042.96C914.145 1042.29 914.599 1041.48 914.892 1040.52C915.185 1039.56 915.359 1038.56 915.412 1037.52C915.492 1036.48 915.532 1035.59 915.532 1034.84C915.532 1034.09 915.492 1033.2 915.412 1032.16C915.359 1031.12 915.185 1030.12 914.892 1029.16C914.599 1028.2 914.145 1027.39 913.532 1026.72C912.919 1026.05 912.079 1025.72 911.012 1025.72C909.919 1025.72 909.065 1026.05 908.452 1026.72C907.865 1027.39 907.425 1028.2 907.132 1029.16C906.839 1030.12 906.652 1031.12 906.572 1032.16C906.519 1033.2 906.492 1034.09 906.492 1034.84ZM1101.67 1020.2C1103.11 1020.2 1104.6 1020.39 1106.15 1020.76C1107.69 1021.13 1109.05 1021.79 1110.23 1022.72L1106.39 1027.4C1105.75 1026.84 1105.01 1026.44 1104.19 1026.2C1103.36 1025.93 1102.52 1025.77 1101.67 1025.72V1032.08L1105.51 1033.2C1107.27 1033.73 1108.67 1034.61 1109.71 1035.84C1110.77 1037.04 1111.31 1038.57 1111.31 1040.44C1111.31 1041.85 1111.05 1043.09 1110.55 1044.16C1110.04 1045.23 1109.35 1046.13 1108.47 1046.88C1107.59 1047.63 1106.56 1048.21 1105.39 1048.64C1104.21 1049.07 1102.97 1049.35 1101.67 1049.48V1052.28H1099.03V1049.48C1097.27 1049.48 1095.51 1049.24 1093.75 1048.76C1092.01 1048.28 1090.48 1047.44 1089.15 1046.24L1093.39 1041.48C1094.08 1042.33 1094.92 1042.95 1095.91 1043.32C1096.89 1043.67 1097.93 1043.88 1099.03 1043.96V1037.2L1096.11 1036.32C1094.08 1035.68 1092.53 1034.79 1091.47 1033.64C1090.43 1032.47 1089.91 1030.87 1089.91 1028.84C1089.91 1027.59 1090.16 1026.45 1090.67 1025.44C1091.17 1024.43 1091.84 1023.56 1092.67 1022.84C1093.52 1022.12 1094.49 1021.53 1095.59 1021.08C1096.71 1020.63 1097.85 1020.33 1099.03 1020.2V1017.4H1101.67V1020.2ZM1099.03 1025.84C1098.28 1026 1097.61 1026.28 1097.03 1026.68C1096.44 1027.08 1096.15 1027.71 1096.15 1028.56C1096.15 1029.17 1096.27 1029.65 1096.51 1030C1096.75 1030.35 1097.03 1030.63 1097.35 1030.84C1097.67 1031.03 1097.99 1031.16 1098.31 1031.24C1098.63 1031.32 1098.87 1031.39 1099.03 1031.44V1025.84ZM1101.67 1043.88C1102.07 1043.8 1102.47 1043.69 1102.87 1043.56C1103.29 1043.4 1103.67 1043.2 1103.99 1042.96C1104.31 1042.72 1104.56 1042.44 1104.75 1042.12C1104.96 1041.77 1105.07 1041.37 1105.07 1040.92C1105.07 1040.49 1104.99 1040.13 1104.83 1039.84C1104.69 1039.55 1104.51 1039.31 1104.27 1039.12C1104.03 1038.91 1103.75 1038.73 1103.43 1038.6C1103.11 1038.44 1102.77 1038.29 1102.43 1038.16L1101.67 1037.88V1043.88ZM1123.74 1027.4L1118.06 1032.4L1114.66 1028.48L1123.9 1020.68H1129.5V1049H1123.74V1027.4ZM1137.21 1034.84C1137.21 1033.16 1137.36 1031.45 1137.65 1029.72C1137.97 1027.99 1138.52 1026.41 1139.29 1025C1140.09 1023.59 1141.17 1022.44 1142.53 1021.56C1143.89 1020.65 1145.62 1020.2 1147.73 1020.2C1149.84 1020.2 1151.57 1020.65 1152.93 1021.56C1154.29 1022.44 1155.36 1023.59 1156.13 1025C1156.93 1026.41 1157.48 1027.99 1157.77 1029.72C1158.09 1031.45 1158.25 1033.16 1158.25 1034.84C1158.25 1036.52 1158.09 1038.23 1157.77 1039.96C1157.48 1041.69 1156.93 1043.27 1156.13 1044.68C1155.36 1046.09 1154.29 1047.25 1152.93 1048.16C1151.57 1049.04 1149.84 1049.48 1147.73 1049.48C1145.62 1049.48 1143.89 1049.04 1142.53 1048.16C1141.17 1047.25 1140.09 1046.09 1139.29 1044.68C1138.52 1043.27 1137.97 1041.69 1137.65 1039.96C1137.36 1038.23 1137.21 1036.52 1137.21 1034.84ZM1143.21 1034.84C1143.21 1035.59 1143.24 1036.48 1143.29 1037.52C1143.37 1038.56 1143.56 1039.56 1143.85 1040.52C1144.14 1041.48 1144.58 1042.29 1145.17 1042.96C1145.78 1043.63 1146.64 1043.96 1147.73 1043.96C1148.8 1043.96 1149.64 1043.63 1150.25 1042.96C1150.86 1042.29 1151.32 1041.48 1151.61 1040.52C1151.9 1039.56 1152.08 1038.56 1152.13 1037.52C1152.21 1036.48 1152.25 1035.59 1152.25 1034.84C1152.25 1034.09 1152.21 1033.2 1152.13 1032.16C1152.08 1031.12 1151.9 1030.12 1151.61 1029.16C1151.32 1028.2 1150.86 1027.39 1150.25 1026.72C1149.64 1026.05 1148.8 1025.72 1147.73 1025.72C1146.64 1025.72 1145.78 1026.05 1145.17 1026.72C1144.58 1027.39 1144.14 1028.2 1143.85 1029.16C1143.56 1030.12 1143.37 1031.12 1143.29 1032.16C1143.24 1033.2 1143.21 1034.09 1143.21 1034.84ZM1160.88 1034.84C1160.88 1033.16 1161.03 1031.45 1161.32 1029.72C1161.64 1027.99 1162.19 1026.41 1162.96 1025C1163.76 1023.59 1164.84 1022.44 1166.2 1021.56C1167.56 1020.65 1169.3 1020.2 1171.4 1020.2C1173.51 1020.2 1175.24 1020.65 1176.6 1021.56C1177.96 1022.44 1179.03 1023.59 1179.8 1025C1180.6 1026.41 1181.15 1027.99 1181.44 1029.72C1181.76 1031.45 1181.92 1033.16 1181.92 1034.84C1181.92 1036.52 1181.76 1038.23 1181.44 1039.96C1181.15 1041.69 1180.6 1043.27 1179.8 1044.68C1179.03 1046.09 1177.96 1047.25 1176.6 1048.16C1175.24 1049.04 1173.51 1049.48 1171.4 1049.48C1169.3 1049.48 1167.56 1049.04 1166.2 1048.16C1164.84 1047.25 1163.76 1046.09 1162.96 1044.68C1162.19 1043.27 1161.64 1041.69 1161.32 1039.96C1161.03 1038.23 1160.88 1036.52 1160.88 1034.84ZM1166.88 1034.84C1166.88 1035.59 1166.91 1036.48 1166.96 1037.52C1167.04 1038.56 1167.23 1039.56 1167.52 1040.52C1167.82 1041.48 1168.26 1042.29 1168.84 1042.96C1169.46 1043.63 1170.31 1043.96 1171.4 1043.96C1172.47 1043.96 1173.31 1043.63 1173.92 1042.96C1174.54 1042.29 1174.99 1041.48 1175.28 1040.52C1175.58 1039.56 1175.75 1038.56 1175.8 1037.52C1175.88 1036.48 1175.92 1035.59 1175.92 1034.84C1175.92 1034.09 1175.88 1033.2 1175.8 1032.16C1175.75 1031.12 1175.58 1030.12 1175.28 1029.16C1174.99 1028.2 1174.54 1027.39 1173.92 1026.72C1173.31 1026.05 1172.47 1025.72 1171.4 1025.72C1170.31 1025.72 1169.46 1026.05 1168.84 1026.72C1168.26 1027.39 1167.82 1028.2 1167.52 1029.16C1167.23 1030.12 1167.04 1031.12 1166.96 1032.16C1166.91 1033.2 1166.88 1034.09 1166.88 1034.84ZM1186.87 1042.52H1192.63L1189.03 1053.8H1183.91L1186.87 1042.52ZM1197.43 1028C1197.43 1026.69 1197.67 1025.56 1198.15 1024.6C1198.66 1023.61 1199.34 1022.8 1200.19 1022.16C1201.07 1021.49 1202.08 1021 1203.23 1020.68C1204.38 1020.36 1205.6 1020.2 1206.91 1020.2C1208.22 1020.2 1209.44 1020.36 1210.59 1020.68C1211.74 1021 1212.74 1021.49 1213.59 1022.16C1214.44 1022.8 1215.12 1023.61 1215.63 1024.6C1216.14 1025.56 1216.39 1026.69 1216.39 1028C1216.39 1029.55 1215.96 1030.87 1215.11 1031.96C1214.28 1033.05 1213.11 1033.83 1211.59 1034.28V1034.36C1213.3 1034.81 1214.6 1035.64 1215.51 1036.84C1216.42 1038.01 1216.87 1039.48 1216.87 1041.24C1216.87 1042.6 1216.59 1043.8 1216.03 1044.84C1215.5 1045.88 1214.76 1046.75 1213.83 1047.44C1212.92 1048.11 1211.87 1048.61 1210.67 1048.96C1209.47 1049.31 1208.22 1049.48 1206.91 1049.48C1205.6 1049.48 1204.35 1049.31 1203.15 1048.96C1201.95 1048.61 1200.88 1048.11 1199.95 1047.44C1199.04 1046.75 1198.31 1045.88 1197.75 1044.84C1197.22 1043.8 1196.95 1042.6 1196.95 1041.24C1196.95 1039.48 1197.4 1038.01 1198.31 1036.84C1199.22 1035.64 1200.52 1034.81 1202.23 1034.36V1034.28C1200.71 1033.83 1199.52 1033.05 1198.67 1031.96C1197.84 1030.87 1197.43 1029.55 1197.43 1028ZM1203.43 1028.84C1203.43 1029.72 1203.75 1030.47 1204.39 1031.08C1205.03 1031.69 1205.87 1032 1206.91 1032C1207.95 1032 1208.79 1031.69 1209.43 1031.08C1210.07 1030.47 1210.39 1029.72 1210.39 1028.84C1210.39 1027.99 1210.07 1027.25 1209.43 1026.64C1208.79 1026.03 1207.95 1025.72 1206.91 1025.72C1205.87 1025.72 1205.03 1026.03 1204.39 1026.64C1203.75 1027.25 1203.43 1027.99 1203.43 1028.84ZM1202.95 1040.4C1202.95 1041.39 1203.31 1042.23 1204.03 1042.92C1204.75 1043.61 1205.71 1043.96 1206.91 1043.96C1208.11 1043.96 1209.07 1043.61 1209.79 1042.92C1210.51 1042.23 1210.87 1041.39 1210.87 1040.4C1210.87 1039.39 1210.51 1038.53 1209.79 1037.84C1209.07 1037.15 1208.11 1036.8 1206.91 1036.8C1205.71 1036.8 1204.75 1037.15 1204.03 1037.84C1203.31 1038.53 1202.95 1039.39 1202.95 1040.4ZM1220.06 1034.84C1220.06 1033.16 1220.21 1031.45 1220.5 1029.72C1220.82 1027.99 1221.37 1026.41 1222.14 1025C1222.94 1023.59 1224.02 1022.44 1225.38 1021.56C1226.74 1020.65 1228.48 1020.2 1230.58 1020.2C1232.69 1020.2 1234.42 1020.65 1235.78 1021.56C1237.14 1022.44 1238.21 1023.59 1238.98 1025C1239.78 1026.41 1240.33 1027.99 1240.62 1029.72C1240.94 1031.45 1241.1 1033.16 1241.1 1034.84C1241.1 1036.52 1240.94 1038.23 1240.62 1039.96C1240.33 1041.69 1239.78 1043.27 1238.98 1044.68C1238.21 1046.09 1237.14 1047.25 1235.78 1048.16C1234.42 1049.04 1232.69 1049.48 1230.58 1049.48C1228.48 1049.48 1226.74 1049.04 1225.38 1048.16C1224.02 1047.25 1222.94 1046.09 1222.14 1044.68C1221.37 1043.27 1220.82 1041.69 1220.5 1039.96C1220.21 1038.23 1220.06 1036.52 1220.06 1034.84ZM1226.06 1034.84C1226.06 1035.59 1226.09 1036.48 1226.14 1037.52C1226.22 1038.56 1226.41 1039.56 1226.7 1040.52C1227 1041.48 1227.44 1042.29 1228.02 1042.96C1228.64 1043.63 1229.49 1043.96 1230.58 1043.96C1231.65 1043.96 1232.49 1043.63 1233.1 1042.96C1233.72 1042.29 1234.17 1041.48 1234.46 1040.52C1234.76 1039.56 1234.93 1038.56 1234.98 1037.52C1235.06 1036.48 1235.1 1035.59 1235.1 1034.84C1235.1 1034.09 1235.06 1033.2 1234.98 1032.16C1234.93 1031.12 1234.76 1030.12 1234.46 1029.16C1234.17 1028.2 1233.72 1027.39 1233.1 1026.72C1232.49 1026.05 1231.65 1025.72 1230.58 1025.72C1229.49 1025.72 1228.64 1026.05 1228.02 1026.72C1227.44 1027.39 1227 1028.2 1226.7 1029.16C1226.41 1030.12 1226.22 1031.12 1226.14 1032.16C1226.09 1033.2 1226.06 1034.09 1226.06 1034.84ZM1243.73 1034.84C1243.73 1033.16 1243.88 1031.45 1244.17 1029.72C1244.49 1027.99 1245.04 1026.41 1245.81 1025C1246.61 1023.59 1247.69 1022.44 1249.05 1021.56C1250.41 1020.65 1252.15 1020.2 1254.25 1020.2C1256.36 1020.2 1258.09 1020.65 1259.45 1021.56C1260.81 1022.44 1261.88 1023.59 1262.65 1025C1263.45 1026.41 1264 1027.99 1264.29 1029.72C1264.61 1031.45 1264.77 1033.16 1264.77 1034.84C1264.77 1036.52 1264.61 1038.23 1264.29 1039.96C1264 1041.69 1263.45 1043.27 1262.65 1044.68C1261.88 1046.09 1260.81 1047.25 1259.45 1048.16C1258.09 1049.04 1256.36 1049.48 1254.25 1049.48C1252.15 1049.48 1250.41 1049.04 1249.05 1048.16C1247.69 1047.25 1246.61 1046.09 1245.81 1044.68C1245.04 1043.27 1244.49 1041.69 1244.17 1039.96C1243.88 1038.23 1243.73 1036.52 1243.73 1034.84ZM1249.73 1034.84C1249.73 1035.59 1249.76 1036.48 1249.81 1037.52C1249.89 1038.56 1250.08 1039.56 1250.37 1040.52C1250.67 1041.48 1251.11 1042.29 1251.69 1042.96C1252.31 1043.63 1253.16 1043.96 1254.25 1043.96C1255.32 1043.96 1256.16 1043.63 1256.77 1042.96C1257.39 1042.29 1257.84 1041.48 1258.13 1040.52C1258.43 1039.56 1258.6 1038.56 1258.65 1037.52C1258.73 1036.48 1258.77 1035.59 1258.77 1034.84C1258.77 1034.09 1258.73 1033.2 1258.65 1032.16C1258.6 1031.12 1258.43 1030.12 1258.13 1029.16C1257.84 1028.2 1257.39 1027.39 1256.77 1026.72C1256.16 1026.05 1255.32 1025.72 1254.25 1025.72C1253.16 1025.72 1252.31 1026.05 1251.69 1026.72C1251.11 1027.39 1250.67 1028.2 1250.37 1029.16C1250.08 1030.12 1249.89 1031.12 1249.81 1032.16C1249.76 1033.2 1249.73 1034.09 1249.73 1034.84Z" fill="#4F4F4F"/>
<line x1="315.687" y1="988.453" x2="315.687" y2="951.374" stroke="#4F4F4F" stroke-width="3.08989"/>
<line x1="486.661" y1="988.453" x2="486.661" y2="951.374" stroke="#4F4F4F" stroke-width="3.08989"/>
<line x1="655.575" y1="988.453" x2="655.575" y2="951.374" stroke="#4F4F4F" stroke-width="3.08989"/>
<line x1="826.549" y1="988.453" x2="826.549" y2="951.374" stroke="#4F4F4F" stroke-width="3.08989"/>
<line x1="995.463" y1="988.453" x2="995.463" y2="951.374" stroke="#4F4F4F" stroke-width="3.08989"/>
<line x1="1166.44" y1="988.453" x2="1166.44" y2="951.374" stroke="#4F4F4F" stroke-width="3.08989"/>
<line x1="1290.55" y1="868.463" x2="1327.63" y2="868.463" stroke="#4F4F4F" stroke-width="3.08989"/>
<line x1="1290.55" y1="376.14" x2="1327.63" y2="376.14" stroke="#4F4F4F" stroke-width="3.08989"/>
<line x1="1290.55" y1="472.957" x2="1327.63" y2="472.957" stroke="#4F4F4F" stroke-width="3.08989"/>
<line x1="1290.55" y1="573.893" x2="1327.63" y2="573.893" stroke="#4F4F4F" stroke-width="3.08989"/>
<line x1="1290.55" y1="671.74" x2="1327.63" y2="671.74" stroke="#4F4F4F" stroke-width="3.08989"/>
<line x1="1290.55" y1="769.586" x2="1327.63" y2="769.586" stroke="#4F4F4F" stroke-width="3.08989"/>
<path d="M1358.52 367.4L1352.84 372.4L1349.44 368.48L1358.68 360.68H1364.28V389H1358.52V367.4ZM1391.35 365.96H1380.11L1379.99 370.32C1380.61 370.107 1381.45 370 1382.51 370C1383.95 370 1385.27 370.213 1386.47 370.64C1387.67 371.067 1388.7 371.693 1389.55 372.52C1390.43 373.32 1391.11 374.307 1391.59 375.48C1392.07 376.627 1392.31 377.92 1392.31 379.36C1392.31 380.96 1392.03 382.387 1391.47 383.64C1390.94 384.893 1390.19 385.96 1389.23 386.84C1388.27 387.693 1387.13 388.347 1385.79 388.8C1384.49 389.253 1383.06 389.48 1381.51 389.48C1379.06 389.48 1377.01 388.88 1375.35 387.68C1373.7 386.48 1372.57 384.667 1371.95 382.24L1378.23 380.8C1378.39 381.813 1378.82 382.64 1379.51 383.28C1380.21 383.893 1381.07 384.2 1382.11 384.2C1383.39 384.2 1384.41 383.8 1385.15 383C1385.93 382.2 1386.31 381.187 1386.31 379.96C1386.31 379.027 1386.11 378.267 1385.71 377.68C1385.34 377.067 1384.83 376.587 1384.19 376.24C1383.58 375.867 1382.89 375.613 1382.11 375.48C1381.34 375.347 1380.57 375.28 1379.79 375.28C1378.81 375.28 1377.81 375.373 1376.79 375.56C1375.81 375.747 1374.85 376 1373.91 376.32L1374.23 360.68H1391.35V365.96ZM1395.66 374.84C1395.66 373.16 1395.81 371.453 1396.1 369.72C1396.42 367.987 1396.97 366.413 1397.74 365C1398.54 363.587 1399.62 362.44 1400.98 361.56C1402.34 360.653 1404.08 360.2 1406.18 360.2C1408.29 360.2 1410.02 360.653 1411.38 361.56C1412.74 362.44 1413.81 363.587 1414.58 365C1415.38 366.413 1415.93 367.987 1416.22 369.72C1416.54 371.453 1416.7 373.16 1416.7 374.84C1416.7 376.52 1416.54 378.227 1416.22 379.96C1415.93 381.693 1415.38 383.267 1414.58 384.68C1413.81 386.093 1412.74 387.253 1411.38 388.16C1410.02 389.04 1408.29 389.48 1406.18 389.48C1404.08 389.48 1402.34 389.04 1400.98 388.16C1399.62 387.253 1398.54 386.093 1397.74 384.68C1396.97 383.267 1396.42 381.693 1396.1 379.96C1395.81 378.227 1395.66 376.52 1395.66 374.84ZM1401.66 374.84C1401.66 375.587 1401.69 376.48 1401.74 377.52C1401.82 378.56 1402.01 379.56 1402.3 380.52C1402.6 381.48 1403.04 382.293 1403.62 382.96C1404.24 383.627 1405.09 383.96 1406.18 383.96C1407.25 383.96 1408.09 383.627 1408.7 382.96C1409.32 382.293 1409.77 381.48 1410.06 380.52C1410.36 379.56 1410.53 378.56 1410.58 377.52C1410.66 376.48 1410.7 375.587 1410.7 374.84C1410.7 374.093 1410.66 373.2 1410.58 372.16C1410.53 371.12 1410.36 370.12 1410.06 369.16C1409.77 368.2 1409.32 367.387 1408.7 366.72C1408.09 366.053 1407.25 365.72 1406.18 365.72C1405.09 365.72 1404.24 366.053 1403.62 366.72C1403.04 367.387 1402.6 368.2 1402.3 369.16C1402.01 370.12 1401.82 371.12 1401.74 372.16C1401.69 373.2 1401.66 374.093 1401.66 374.84ZM1358.52 465.4L1352.84 470.4L1349.44 466.48L1358.68 458.68H1364.28V487H1358.52V465.4ZM1372.63 480.64L1383.63 470.76C1384.19 470.253 1384.75 469.68 1385.31 469.04C1385.87 468.4 1386.15 467.653 1386.15 466.8C1386.15 465.84 1385.81 465.093 1385.11 464.56C1384.42 464 1383.61 463.72 1382.67 463.72C1381.55 463.72 1380.67 464.067 1380.03 464.76C1379.42 465.453 1379.07 466.307 1378.99 467.32L1372.99 466.88C1373.07 465.413 1373.38 464.147 1373.91 463.08C1374.45 461.987 1375.15 461.08 1376.03 460.36C1376.91 459.64 1377.94 459.107 1379.11 458.76C1380.31 458.387 1381.61 458.2 1382.99 458.2C1384.27 458.2 1385.47 458.387 1386.59 458.76C1387.71 459.107 1388.69 459.64 1389.51 460.36C1390.34 461.053 1390.98 461.933 1391.43 463C1391.91 464.067 1392.15 465.307 1392.15 466.72C1392.15 467.627 1392.06 468.453 1391.87 469.2C1391.69 469.92 1391.42 470.587 1391.07 471.2C1390.75 471.787 1390.37 472.333 1389.91 472.84C1389.46 473.347 1388.97 473.84 1388.43 474.32L1379.83 481.72H1392.39V487H1372.63V480.64ZM1415.02 463.96H1403.78L1403.66 468.32C1404.28 468.107 1405.12 468 1406.18 468C1407.62 468 1408.94 468.213 1410.14 468.64C1411.34 469.067 1412.37 469.693 1413.22 470.52C1414.1 471.32 1414.78 472.307 1415.26 473.48C1415.74 474.627 1415.98 475.92 1415.98 477.36C1415.98 478.96 1415.7 480.387 1415.14 481.64C1414.61 482.893 1413.86 483.96 1412.9 484.84C1411.94 485.693 1410.8 486.347 1409.46 486.8C1408.16 487.253 1406.73 487.48 1405.18 487.48C1402.73 487.48 1400.68 486.88 1399.02 485.68C1397.37 484.48 1396.24 482.667 1395.62 480.24L1401.9 478.8C1402.06 479.813 1402.49 480.64 1403.18 481.28C1403.88 481.893 1404.74 482.2 1405.78 482.2C1407.06 482.2 1408.08 481.8 1408.82 481C1409.6 480.2 1409.98 479.187 1409.98 477.96C1409.98 477.027 1409.78 476.267 1409.38 475.68C1409.01 475.067 1408.5 474.587 1407.86 474.24C1407.25 473.867 1406.56 473.613 1405.78 473.48C1405.01 473.347 1404.24 473.28 1403.46 473.28C1402.48 473.28 1401.48 473.373 1400.46 473.56C1399.48 473.747 1398.52 474 1397.58 474.32L1397.9 458.68H1415.02V463.96ZM1358.52 563.4L1352.84 568.4L1349.44 564.48L1358.68 556.68H1364.28V585H1358.52V563.4ZM1371.99 570.84C1371.99 569.16 1372.14 567.453 1372.43 565.72C1372.75 563.987 1373.3 562.413 1374.07 561C1374.87 559.587 1375.95 558.44 1377.31 557.56C1378.67 556.653 1380.41 556.2 1382.51 556.2C1384.62 556.2 1386.35 556.653 1387.71 557.56C1389.07 558.44 1390.14 559.587 1390.91 561C1391.71 562.413 1392.26 563.987 1392.55 565.72C1392.87 567.453 1393.03 569.16 1393.03 570.84C1393.03 572.52 1392.87 574.227 1392.55 575.96C1392.26 577.693 1391.71 579.267 1390.91 580.68C1390.14 582.093 1389.07 583.253 1387.71 584.16C1386.35 585.04 1384.62 585.48 1382.51 585.48C1380.41 585.48 1378.67 585.04 1377.31 584.16C1375.95 583.253 1374.87 582.093 1374.07 580.68C1373.3 579.267 1372.75 577.693 1372.43 575.96C1372.14 574.227 1371.99 572.52 1371.99 570.84ZM1377.99 570.84C1377.99 571.587 1378.02 572.48 1378.07 573.52C1378.15 574.56 1378.34 575.56 1378.63 576.52C1378.93 577.48 1379.37 578.293 1379.95 578.96C1380.57 579.627 1381.42 579.96 1382.51 579.96C1383.58 579.96 1384.42 579.627 1385.03 578.96C1385.65 578.293 1386.1 577.48 1386.39 576.52C1386.69 575.56 1386.86 574.56 1386.91 573.52C1386.99 572.48 1387.03 571.587 1387.03 570.84C1387.03 570.093 1386.99 569.2 1386.91 568.16C1386.86 567.12 1386.69 566.12 1386.39 565.16C1386.1 564.2 1385.65 563.387 1385.03 562.72C1384.42 562.053 1383.58 561.72 1382.51 561.72C1381.42 561.72 1380.57 562.053 1379.95 562.72C1379.37 563.387 1378.93 564.2 1378.63 565.16C1378.34 566.12 1378.15 567.12 1378.07 568.16C1378.02 569.2 1377.99 570.093 1377.99 570.84ZM1395.66 570.84C1395.66 569.16 1395.81 567.453 1396.1 565.72C1396.42 563.987 1396.97 562.413 1397.74 561C1398.54 559.587 1399.62 558.44 1400.98 557.56C1402.34 556.653 1404.08 556.2 1406.18 556.2C1408.29 556.2 1410.02 556.653 1411.38 557.56C1412.74 558.44 1413.81 559.587 1414.58 561C1415.38 562.413 1415.93 563.987 1416.22 565.72C1416.54 567.453 1416.7 569.16 1416.7 570.84C1416.7 572.52 1416.54 574.227 1416.22 575.96C1415.93 577.693 1415.38 579.267 1414.58 580.68C1413.81 582.093 1412.74 583.253 1411.38 584.16C1410.02 585.04 1408.29 585.48 1406.18 585.48C1404.08 585.48 1402.34 585.04 1400.98 584.16C1399.62 583.253 1398.54 582.093 1397.74 580.68C1396.97 579.267 1396.42 577.693 1396.1 575.96C1395.81 574.227 1395.66 572.52 1395.66 570.84ZM1401.66 570.84C1401.66 571.587 1401.69 572.48 1401.74 573.52C1401.82 574.56 1402.01 575.56 1402.3 576.52C1402.6 577.48 1403.04 578.293 1403.62 578.96C1404.24 579.627 1405.09 579.96 1406.18 579.96C1407.25 579.96 1408.09 579.627 1408.7 578.96C1409.32 578.293 1409.77 577.48 1410.06 576.52C1410.36 575.56 1410.53 574.56 1410.58 573.52C1410.66 572.48 1410.7 571.587 1410.7 570.84C1410.7 570.093 1410.66 569.2 1410.58 568.16C1410.53 567.12 1410.36 566.12 1410.06 565.16C1409.77 564.2 1409.32 563.387 1408.7 562.72C1408.09 562.053 1407.25 561.72 1406.18 561.72C1405.09 561.72 1404.24 562.053 1403.62 562.72C1403.04 563.387 1402.6 564.2 1402.3 565.16C1402.01 566.12 1401.82 567.12 1401.74 568.16C1401.69 569.2 1401.66 570.093 1401.66 570.84ZM1362.48 660.2H1348.48V654.68H1369.2V659.96L1357.88 683H1350.88L1362.48 660.2ZM1391.35 659.96H1380.11L1379.99 664.32C1380.61 664.107 1381.45 664 1382.51 664C1383.95 664 1385.27 664.213 1386.47 664.64C1387.67 665.067 1388.7 665.693 1389.55 666.52C1390.43 667.32 1391.11 668.307 1391.59 669.48C1392.07 670.627 1392.31 671.92 1392.31 673.36C1392.31 674.96 1392.03 676.387 1391.47 677.64C1390.94 678.893 1390.19 679.96 1389.23 680.84C1388.27 681.693 1387.13 682.347 1385.79 682.8C1384.49 683.253 1383.06 683.48 1381.51 683.48C1379.06 683.48 1377.01 682.88 1375.35 681.68C1373.7 680.48 1372.57 678.667 1371.95 676.24L1378.23 674.8C1378.39 675.813 1378.82 676.64 1379.51 677.28C1380.21 677.893 1381.07 678.2 1382.11 678.2C1383.39 678.2 1384.41 677.8 1385.15 677C1385.93 676.2 1386.31 675.187 1386.31 673.96C1386.31 673.027 1386.11 672.267 1385.71 671.68C1385.34 671.067 1384.83 670.587 1384.19 670.24C1383.58 669.867 1382.89 669.613 1382.11 669.48C1381.34 669.347 1380.57 669.28 1379.79 669.28C1378.81 669.28 1377.81 669.373 1376.79 669.56C1375.81 669.747 1374.85 670 1373.91 670.32L1374.23 654.68H1391.35V659.96ZM1367.68 757.96H1356.44L1356.32 762.32C1356.93 762.107 1357.77 762 1358.84 762C1360.28 762 1361.6 762.213 1362.8 762.64C1364 763.067 1365.03 763.693 1365.88 764.52C1366.76 765.32 1367.44 766.307 1367.92 767.48C1368.4 768.627 1368.64 769.92 1368.64 771.36C1368.64 772.96 1368.36 774.387 1367.8 775.64C1367.27 776.893 1366.52 777.96 1365.56 778.84C1364.6 779.693 1363.45 780.347 1362.12 780.8C1360.81 781.253 1359.39 781.48 1357.84 781.48C1355.39 781.48 1353.33 780.88 1351.68 779.68C1350.03 778.48 1348.89 776.667 1348.28 774.24L1354.56 772.8C1354.72 773.813 1355.15 774.64 1355.84 775.28C1356.53 775.893 1357.4 776.2 1358.44 776.2C1359.72 776.2 1360.73 775.8 1361.48 775C1362.25 774.2 1362.64 773.187 1362.64 771.96C1362.64 771.027 1362.44 770.267 1362.04 769.68C1361.67 769.067 1361.16 768.587 1360.52 768.24C1359.91 767.867 1359.21 767.613 1358.44 767.48C1357.67 767.347 1356.89 767.28 1356.12 767.28C1355.13 767.28 1354.13 767.373 1353.12 767.56C1352.13 767.747 1351.17 768 1350.24 768.32L1350.56 752.68H1367.68V757.96ZM1371.99 766.84C1371.99 765.16 1372.14 763.453 1372.43 761.72C1372.75 759.987 1373.3 758.413 1374.07 757C1374.87 755.587 1375.95 754.44 1377.31 753.56C1378.67 752.653 1380.41 752.2 1382.51 752.2C1384.62 752.2 1386.35 752.653 1387.71 753.56C1389.07 754.44 1390.14 755.587 1390.91 757C1391.71 758.413 1392.26 759.987 1392.55 761.72C1392.87 763.453 1393.03 765.16 1393.03 766.84C1393.03 768.52 1392.87 770.227 1392.55 771.96C1392.26 773.693 1391.71 775.267 1390.91 776.68C1390.14 778.093 1389.07 779.253 1387.71 780.16C1386.35 781.04 1384.62 781.48 1382.51 781.48C1380.41 781.48 1378.67 781.04 1377.31 780.16C1375.95 779.253 1374.87 778.093 1374.07 776.68C1373.3 775.267 1372.75 773.693 1372.43 771.96C1372.14 770.227 1371.99 768.52 1371.99 766.84ZM1377.99 766.84C1377.99 767.587 1378.02 768.48 1378.07 769.52C1378.15 770.56 1378.34 771.56 1378.63 772.52C1378.93 773.48 1379.37 774.293 1379.95 774.96C1380.57 775.627 1381.42 775.96 1382.51 775.96C1383.58 775.96 1384.42 775.627 1385.03 774.96C1385.65 774.293 1386.1 773.48 1386.39 772.52C1386.69 771.56 1386.86 770.56 1386.91 769.52C1386.99 768.48 1387.03 767.587 1387.03 766.84C1387.03 766.093 1386.99 765.2 1386.91 764.16C1386.86 763.12 1386.69 762.12 1386.39 761.16C1386.1 760.2 1385.65 759.387 1385.03 758.72C1384.42 758.053 1383.58 757.72 1382.51 757.72C1381.42 757.72 1380.57 758.053 1379.95 758.72C1379.37 759.387 1378.93 760.2 1378.63 761.16C1378.34 762.12 1378.15 763.12 1378.07 764.16C1378.02 765.2 1377.99 766.093 1377.99 766.84ZM1348.96 872.64L1359.96 862.76C1360.52 862.253 1361.08 861.68 1361.64 861.04C1362.2 860.4 1362.48 859.653 1362.48 858.8C1362.48 857.84 1362.13 857.093 1361.44 856.56C1360.75 856 1359.93 855.72 1359 855.72C1357.88 855.72 1357 856.067 1356.36 856.76C1355.75 857.453 1355.4 858.307 1355.32 859.32L1349.32 858.88C1349.4 857.413 1349.71 856.147 1350.24 855.08C1350.77 853.987 1351.48 853.08 1352.36 852.36C1353.24 851.64 1354.27 851.107 1355.44 850.76C1356.64 850.387 1357.93 850.2 1359.32 850.2C1360.6 850.2 1361.8 850.387 1362.92 850.76C1364.04 851.107 1365.01 851.64 1365.84 852.36C1366.67 853.053 1367.31 853.933 1367.76 855C1368.24 856.067 1368.48 857.307 1368.48 858.72C1368.48 859.627 1368.39 860.453 1368.2 861.2C1368.01 861.92 1367.75 862.587 1367.4 863.2C1367.08 863.787 1366.69 864.333 1366.24 864.84C1365.79 865.347 1365.29 865.84 1364.76 866.32L1356.16 873.72H1368.72V879H1348.96V872.64ZM1391.35 855.96H1380.11L1379.99 860.32C1380.61 860.107 1381.45 860 1382.51 860C1383.95 860 1385.27 860.213 1386.47 860.64C1387.67 861.067 1388.7 861.693 1389.55 862.52C1390.43 863.32 1391.11 864.307 1391.59 865.48C1392.07 866.627 1392.31 867.92 1392.31 869.36C1392.31 870.96 1392.03 872.387 1391.47 873.64C1390.94 874.893 1390.19 875.96 1389.23 876.84C1388.27 877.693 1387.13 878.347 1385.79 878.8C1384.49 879.253 1383.06 879.48 1381.51 879.48C1379.06 879.48 1377.01 878.88 1375.35 877.68C1373.7 876.48 1372.57 874.667 1371.95 872.24L1378.23 870.8C1378.39 871.813 1378.82 872.64 1379.51 873.28C1380.21 873.893 1381.07 874.2 1382.11 874.2C1383.39 874.2 1384.41 873.8 1385.15 873C1385.93 872.2 1386.31 871.187 1386.31 869.96C1386.31 869.027 1386.11 868.267 1385.71 867.68C1385.34 867.067 1384.83 866.587 1384.19 866.24C1383.58 865.867 1382.89 865.613 1382.11 865.48C1381.34 865.347 1380.57 865.28 1379.79 865.28C1378.81 865.28 1377.81 865.373 1376.79 865.56C1375.81 865.747 1374.85 866 1373.91 866.32L1374.23 850.68H1391.35V855.96Z" fill="#4F4F4F"/>
<path d="M664.883 1114.6H678.033C679.867 1114.6 681.6 1114.77 683.233 1115.1C684.867 1115.43 686.283 1116.02 687.483 1116.85C688.717 1117.65 689.683 1118.75 690.383 1120.15C691.117 1121.52 691.483 1123.25 691.483 1125.35C691.483 1127.42 691.15 1129.15 690.483 1130.55C689.817 1131.95 688.9 1133.07 687.733 1133.9C686.567 1134.73 685.183 1135.33 683.583 1135.7C681.983 1136.03 680.25 1136.2 678.383 1136.2H672.683V1150H664.883V1114.6ZM672.683 1129.6H677.883C678.583 1129.6 679.25 1129.53 679.883 1129.4C680.55 1129.27 681.133 1129.05 681.633 1128.75C682.167 1128.42 682.583 1127.98 682.883 1127.45C683.217 1126.88 683.383 1126.18 683.383 1125.35C683.383 1124.45 683.167 1123.73 682.733 1123.2C682.333 1122.63 681.8 1122.2 681.133 1121.9C680.5 1121.6 679.783 1121.42 678.983 1121.35C678.183 1121.25 677.417 1121.2 676.683 1121.2H672.683V1129.6ZM696.377 1114.6H710.077C711.877 1114.6 713.577 1114.78 715.177 1115.15C716.811 1115.48 718.227 1116.07 719.427 1116.9C720.661 1117.7 721.627 1118.8 722.327 1120.2C723.061 1121.57 723.427 1123.28 723.427 1125.35C723.427 1127.85 722.777 1129.98 721.477 1131.75C720.177 1133.48 718.277 1134.58 715.777 1135.05L724.777 1150H715.427L708.027 1135.85H704.177V1150H696.377V1114.6ZM704.177 1129.25H708.777C709.477 1129.25 710.211 1129.23 710.977 1129.2C711.777 1129.13 712.494 1128.98 713.127 1128.75C713.761 1128.48 714.277 1128.08 714.677 1127.55C715.111 1127.02 715.327 1126.27 715.327 1125.3C715.327 1124.4 715.144 1123.68 714.777 1123.15C714.411 1122.62 713.944 1122.22 713.377 1121.95C712.811 1121.65 712.161 1121.45 711.427 1121.35C710.694 1121.25 709.977 1121.2 709.277 1121.2H704.177V1129.25ZM728.699 1114.6H736.499V1150H728.699V1114.6ZM766.744 1123.8C765.977 1122.87 765.027 1122.15 763.894 1121.65C762.794 1121.15 761.511 1120.9 760.044 1120.9C758.577 1120.9 757.211 1121.18 755.944 1121.75C754.711 1122.32 753.627 1123.12 752.694 1124.15C751.794 1125.15 751.077 1126.35 750.544 1127.75C750.044 1129.15 749.794 1130.67 749.794 1132.3C749.794 1133.97 750.044 1135.5 750.544 1136.9C751.077 1138.27 751.794 1139.47 752.694 1140.5C753.594 1141.5 754.644 1142.28 755.844 1142.85C757.077 1143.42 758.394 1143.7 759.794 1143.7C761.394 1143.7 762.811 1143.37 764.044 1142.7C765.277 1142.03 766.294 1141.1 767.094 1139.9L773.594 1144.75C772.094 1146.85 770.194 1148.4 767.894 1149.4C765.594 1150.4 763.227 1150.9 760.794 1150.9C758.027 1150.9 755.477 1150.47 753.144 1149.6C750.811 1148.73 748.794 1147.5 747.094 1145.9C745.394 1144.27 744.061 1142.3 743.094 1140C742.161 1137.7 741.694 1135.13 741.694 1132.3C741.694 1129.47 742.161 1126.9 743.094 1124.6C744.061 1122.3 745.394 1120.35 747.094 1118.75C748.794 1117.12 750.811 1115.87 753.144 1115C755.477 1114.13 758.027 1113.7 760.794 1113.7C761.794 1113.7 762.827 1113.8 763.894 1114C764.994 1114.17 766.061 1114.45 767.094 1114.85C768.161 1115.25 769.177 1115.78 770.144 1116.45C771.111 1117.12 771.977 1117.93 772.744 1118.9L766.744 1123.8ZM778.123 1114.6H802.173V1121.8H785.923V1128.4H801.273V1135.6H785.923V1142.8H803.073V1150H778.123V1114.6Z" fill="#4F4F4F"/>
<path d="M1453.6 640.6H1466.8C1468.33 640.6 1469.87 640.717 1471.4 640.95C1472.97 641.15 1474.37 641.583 1475.6 642.25C1476.83 642.883 1477.83 643.783 1478.6 644.95C1479.37 646.117 1479.75 647.667 1479.75 649.6C1479.75 651.6 1479.18 653.267 1478.05 654.6C1476.95 655.9 1475.48 656.833 1473.65 657.4V657.5C1474.82 657.667 1475.87 658 1476.8 658.5C1477.77 658.967 1478.58 659.583 1479.25 660.35C1479.95 661.083 1480.48 661.95 1480.85 662.95C1481.22 663.95 1481.4 665.017 1481.4 666.15C1481.4 668.017 1481 669.583 1480.2 670.85C1479.4 672.083 1478.37 673.083 1477.1 673.85C1475.83 674.617 1474.4 675.167 1472.8 675.5C1471.23 675.833 1469.67 676 1468.1 676H1453.6V640.6ZM1461.4 654.75H1467.05C1467.65 654.75 1468.23 654.683 1468.8 654.55C1469.4 654.417 1469.93 654.2 1470.4 653.9C1470.87 653.6 1471.23 653.2 1471.5 652.7C1471.8 652.2 1471.95 651.6 1471.95 650.9C1471.95 650.167 1471.78 649.567 1471.45 649.1C1471.15 648.6 1470.75 648.217 1470.25 647.95C1469.75 647.683 1469.18 647.5 1468.55 647.4C1467.92 647.267 1467.3 647.2 1466.7 647.2H1461.4V654.75ZM1461.4 669.4H1468.4C1469 669.4 1469.6 669.333 1470.2 669.2C1470.83 669.067 1471.4 668.833 1471.9 668.5C1472.4 668.167 1472.8 667.733 1473.1 667.2C1473.43 666.667 1473.6 666.017 1473.6 665.25C1473.6 664.417 1473.38 663.75 1472.95 663.25C1472.55 662.717 1472.03 662.317 1471.4 662.05C1470.77 661.783 1470.08 661.6 1469.35 661.5C1468.62 661.4 1467.93 661.35 1467.3 661.35H1461.4V669.4ZM1492.87 647.5H1482.77V640.6H1510.77V647.5H1500.67V676H1492.87V647.5ZM1537.88 649.8C1537.12 648.867 1536.17 648.15 1535.03 647.65C1533.93 647.15 1532.65 646.9 1531.18 646.9C1529.72 646.9 1528.35 647.183 1527.08 647.75C1525.85 648.317 1524.77 649.117 1523.83 650.15C1522.93 651.15 1522.22 652.35 1521.68 653.75C1521.18 655.15 1520.93 656.667 1520.93 658.3C1520.93 659.967 1521.18 661.5 1521.68 662.9C1522.22 664.267 1522.93 665.467 1523.83 666.5C1524.73 667.5 1525.78 668.283 1526.98 668.85C1528.22 669.417 1529.53 669.7 1530.93 669.7C1532.53 669.7 1533.95 669.367 1535.18 668.7C1536.42 668.033 1537.43 667.1 1538.23 665.9L1544.73 670.75C1543.23 672.85 1541.33 674.4 1539.03 675.4C1536.73 676.4 1534.37 676.9 1531.93 676.9C1529.17 676.9 1526.62 676.467 1524.28 675.6C1521.95 674.733 1519.93 673.5 1518.23 671.9C1516.53 670.267 1515.2 668.3 1514.23 666C1513.3 663.7 1512.83 661.133 1512.83 658.3C1512.83 655.467 1513.3 652.9 1514.23 650.6C1515.2 648.3 1516.53 646.35 1518.23 644.75C1519.93 643.117 1521.95 641.867 1524.28 641C1526.62 640.133 1529.17 639.7 1531.93 639.7C1532.93 639.7 1533.97 639.8 1535.03 640C1536.13 640.167 1537.2 640.45 1538.23 640.85C1539.3 641.25 1540.32 641.783 1541.28 642.45C1542.25 643.117 1543.12 643.933 1543.88 644.9L1537.88 649.8Z" fill="#4F4F4F"/>
<line x1="725.5" y1="508.5" x2="725.5" y2="962.301" stroke="#E2BE79" stroke-width="5" stroke-linecap="round" stroke-linejoin="round"/>
<path d="M512.776 76.36H531.496C536.029 76.36 540.322 76.8667 544.376 77.88C548.482 78.8933 552.056 80.5467 555.096 82.84C558.136 85.08 560.536 88.0133 562.296 91.64C564.109 95.2667 565.016 99.6667 565.016 104.84C565.016 109.427 564.136 113.48 562.376 117C560.669 120.467 558.349 123.4 555.416 125.8C552.482 128.147 549.096 129.933 545.256 131.16C541.416 132.387 537.389 133 533.176 133H512.776V76.36ZM525.256 121.48H531.736C534.616 121.48 537.282 121.187 539.736 120.6C542.242 120.013 544.402 119.053 546.216 117.72C548.029 116.333 549.442 114.547 550.456 112.36C551.522 110.12 552.056 107.4 552.056 104.2C552.056 101.427 551.522 99.0267 550.456 97C549.442 94.92 548.056 93.2133 546.296 91.88C544.536 90.5467 542.456 89.56 540.056 88.92C537.709 88.2267 535.229 87.88 532.616 87.88H525.256V121.48ZM573.959 76.36H612.439V87.88H586.439V98.44H610.999V109.96H586.439V121.48H613.879V133H573.959V76.36ZM623.869 76.36H644.909C647.843 76.36 650.616 76.6267 653.229 77.16C655.843 77.6933 658.109 78.6267 660.029 79.96C662.003 81.24 663.549 83 664.669 85.24C665.843 87.4267 666.429 90.2 666.429 93.56C666.429 96.8667 665.896 99.64 664.829 101.88C663.763 104.12 662.296 105.907 660.429 107.24C658.563 108.573 656.349 109.533 653.789 110.12C651.229 110.653 648.456 110.92 645.469 110.92H636.349V133H623.869V76.36ZM636.349 100.36H644.669C645.789 100.36 646.856 100.253 647.869 100.04C648.936 99.8267 649.869 99.48 650.669 99C651.523 98.4667 652.189 97.7733 652.669 96.92C653.203 96.0133 653.469 94.8933 653.469 93.56C653.469 92.12 653.123 90.9733 652.429 90.12C651.789 89.2133 650.936 88.52 649.869 88.04C648.856 87.56 647.709 87.2667 646.429 87.16C645.149 87 643.923 86.92 642.749 86.92H636.349V100.36ZM685.22 87.4H669.06V76.36H713.86V87.4H697.7V133H685.22V87.4ZM720.198 76.36H732.678V97.48H756.918V76.36H769.398V133H756.918V108.52H732.678V133H720.198V76.36ZM841.613 91.08C840.386 89.5867 838.866 88.44 837.053 87.64C835.293 86.84 833.239 86.44 830.893 86.44C828.546 86.44 826.359 86.8933 824.333 87.8C822.359 88.7067 820.626 89.9867 819.133 91.64C817.693 93.24 816.546 95.16 815.693 97.4C814.893 99.64 814.493 102.067 814.493 104.68C814.493 107.347 814.893 109.8 815.693 112.04C816.546 114.227 817.693 116.147 819.133 117.8C820.573 119.4 822.253 120.653 824.173 121.56C826.146 122.467 828.253 122.92 830.493 122.92C833.053 122.92 835.319 122.387 837.293 121.32C839.266 120.253 840.893 118.76 842.173 116.84L852.573 124.6C850.173 127.96 847.133 130.44 843.453 132.04C839.773 133.64 835.986 134.44 832.093 134.44C827.666 134.44 823.586 133.747 819.853 132.36C816.119 130.973 812.893 129 810.173 126.44C807.453 123.827 805.319 120.68 803.773 117C802.279 113.32 801.533 109.213 801.533 104.68C801.533 100.147 802.279 96.04 803.773 92.36C805.319 88.68 807.453 85.56 810.173 83C812.893 80.3867 816.119 78.3867 819.853 77C823.586 75.6133 827.666 74.92 832.093 74.92C833.693 74.92 835.346 75.08 837.053 75.4C838.813 75.6667 840.519 76.12 842.173 76.76C843.879 77.4 845.506 78.2533 847.053 79.32C848.599 80.3867 849.986 81.6933 851.213 83.24L841.613 91.08ZM859.338 76.36H871.818V97.48H896.058V76.36H908.538V133H896.058V108.52H871.818V133H859.338V76.36ZM938.681 76.36H949.001L973.641 133H959.561L954.681 121H932.681L927.961 133H914.201L938.681 76.36ZM943.481 92.84L936.601 110.44H950.441L943.481 92.84ZM979.338 76.36H1001.26C1004.14 76.36 1006.86 76.6533 1009.42 77.24C1012.03 77.7733 1014.3 78.7067 1016.22 80.04C1018.19 81.32 1019.74 83.08 1020.86 85.32C1022.03 87.5067 1022.62 90.2533 1022.62 93.56C1022.62 97.56 1021.58 100.973 1019.5 103.8C1017.42 106.573 1014.38 108.333 1010.38 109.08L1024.78 133H1009.82L997.978 110.36H991.818V133H979.338V76.36ZM991.818 99.8H999.178C1000.3 99.8 1001.47 99.7733 1002.7 99.72C1003.98 99.6133 1005.12 99.3733 1006.14 99C1007.15 98.5733 1007.98 97.9333 1008.62 97.08C1009.31 96.2267 1009.66 95.0267 1009.66 93.48C1009.66 92.04 1009.36 90.8933 1008.78 90.04C1008.19 89.1867 1007.44 88.5467 1006.54 88.12C1005.63 87.64 1004.59 87.32 1003.42 87.16C1002.24 87 1001.1 86.92 999.978 86.92H991.818V99.8ZM1040.77 87.4H1024.61V76.36H1069.41V87.4H1053.25V133H1040.77V87.4Z" fill="black"/>
</svg>
